<mxfile host="Electron" modified="2024-05-04T23:11:58.270Z" agent="Mozilla/5.0 (Macintosh; Intel Mac OS X 10_15_7) AppleWebKit/537.36 (KHTML, like Gecko) draw.io/22.1.18 Chrome/120.0.6099.199 Electron/28.1.2 Safari/537.36" etag="6riCH6VCCr6Mn0fBzHu6" version="22.1.18" type="device">
  <diagram name="Page-1" id="PbINkr8BafjQL8q5L87Y">
    <mxGraphModel dx="1336" dy="961" grid="1" gridSize="10" guides="1" tooltips="1" connect="1" arrows="1" fold="1" page="1" pageScale="1" pageWidth="1169" pageHeight="827" background="#ffffff" math="0" shadow="0">
      <root>
        <mxCell id="0" />
        <mxCell id="1" parent="0" />
        <mxCell id="IQgT02N7gyP_bAqmJs0r-10" value="" style="shape=image;verticalLabelPosition=bottom;verticalAlign=top;imageAspect=0;aspect=fixed;image=data:image/png,iVBORw0KGgoAAAANSUhEUgAAAZsAAAEFCAYAAAA19ErLAAAAAXNSR0IArs4c6QAAIABJREFUeF7t3QlYVOX+B/D3HQh32WYBBRFT0VAxU2+JxgCmaN3ETNMSd5PU1DSUYnEEtEDDEnIJza5rGZJ6RVE2U7DcEktyzaREhplhBFdUZs7f4x+7Wi6znJk5M/Od5+HeHjvnfX+/z3vw25k5cw4leEHANgWkhJA997UmdXJyCm3SpIlTQEDATxs3bjxOCGkSHx//wpYtW8YJBAJB+/btT3333XfbGYZpsGLFimdiY2Onsfu3bt363MGDB1dTSgUTJkwI3rp1Kzs2+fe//71n1apV+QKBQDN69Ojg7Ozsl9g/79u37/YNGzZkUUprBw0aNOjMmTMdNRqNdsCAASsWLVq0r2HDhleDgoICTp482f3WrVva+jrv1fr3um1zddCV3QlQu+sYDduEwJkzZ5oHBATsdnJyesrPz+/Uf//731xKqfv69eufnTFjxpvPPPOMslevXlc++uijS4QQ57179wp/+OGHpgKBwLFXr14kMDDwL4fi4uK//vn+P+cK6mHjs39WXFxcd/v27VsvvPDCpZCQkApKafW2bdscx40bdzfMBg4cuHvt2rVfa7ValVQqHXTlypVrly5dunblypXdfwtSrkrFOBAwmQDCxmS0GNgAgbt/yTZr1qz/+fPn19XV1XktW7YsWCaTzWH/fMyYMSdTUlKqCSEexcXFnpTSBvfmMEVIGFC/SXdZuHAh0Wq1dT179mTD5zylVD516tSW33zzTQ924qlTp0bNmzdvJ6X0gpub27P1xdx/dmfS+jA4BB4ngLDB8WEJAalYLH5FLBa7FhYW5jMM03rz5s0vLF26tJeTk1PDmJgY0qdPn8aWKMxa57x39lQfulfy8/Or5s+f3/yXX35xe+WVV/JXrVq1+k5en3/11Vc9Dhw40Plvb91Za9uo24oEEDZWtFhWWKq0SZMmyc8888yZnTt3HiCEtN2+fXvPtLS0LiEhIU6BgYGO9nBGwqd1S0lJqbt+/Xr13r17aYcOHc4uW7ZsvUAgOPvmm2+65+TktEUI8Wm1bKsWhI1traelupG6ubkN9Pb2Fubl5f1ICPHLzs5+IT09PSA2NvbuGQpCxVJLo9u87Ft0169fr9qzZw+JjIzMf+ONN9gzzpP9+vVzKykp6XpnFJluI2ErCDxcAGGDI0NfAalQKHz55MmTOVqt1p9S6v/SSy+9ERwc/FRQUFBjhIq+nPzefsGCBdcLCwtvl5SUOM+fPz9t0qRJWxs2bHi8adOmHXGRAr/Xjm/VIWz4tiL8qkf6+++//9isWbMuDMN0EYlEGQEBAdXBwcFOMTEx+EyFX2tltmoYhlG99NJLjseOHXNhJ1WpVP+6cuXKz76+vrVmKwITWZ0Awsbqlsy0BV+5ckUUHBycevjw4ZH+/v6KuLi4m6Ghod6mnRWjW6sAe2ECezZLKT3JMMwxkUj0hlAo/Fmr1e5Sq9WzrbUv1M29AMKGe1NrGvHuW2ICgaB/dHT04YiICHdCSLfi4mIvvB1mTcvIr1rZz3969OihlEqlPwgEgiOU0iPt27eXqlSqbLz1xq+1Mmc1CBtzalt+LqlSqWR/+XtqtdqeUVFRo3799VffmJiYBggXyy+OLVeQlJR0OS8v79a1a9cuHz58+G2GYQ6KRKIrttwzentQAGFjB0dEu3btlt24cSOkWbNmzUNCQhxlMpnQDtpGizwWoJT+Om3atFsbNmzo2q5du+V3bunzDc56eLxgHJSGsOEAkWdDSNu0adPY3d19RHZ2Nvst814Mw7ywf//+Rjh74dlKoZy7AsnJyXVdunT5OSwsbAchZP/zzz9Pz507x/4zXjYkgLCxkcW8ePGiT3p6+sQFCxbEdOvW7Vp8fHwThIuNLK6dtZGXl3duxIgRbTw9PU+0a9du3t69e9mzHrysXABhY70LePfb+S4uLi4lJSUHCSEvEkJaWW87qBwCDwrUX+n2ByFkL/sTERFxIycn5wLebrPOIwVhY2XrdvHixQ4ODg7S999/f8qpU6faf/jhh+xtX6ysC5QLAf0F5s+ffzU3N/d6aWmpWKVSdRQKhSf1HwV7WEoAYWMped3nlTZu3PgjV1dX17lz5/45ePBgf0KIp+67Y0sI2KRAxZ2z+QKBQFDQpUuXzuXl5e/ZZJc21BTChqeLWVNT43bz5s2+06dPn3327NlnYmJi8AE/T9cKZVlWIDExUb1kyRK33r17f5udnR3p7OystmxFmP1hAggbfh0X7A0tF7u6urr9+OOPSkLIc/wqD9VAgL8C9Z/xHGEYJjc2NlbxxRdfON+pFjcQ5cmSIWx4sBBKpbL9ihUrpnz99ddvJSUlObO33udBWSgBAlYrkJycrFWr1We//PLL9mFhYRF3Hp+wzmqbsZHCETYWWkhHR8fgO5/DfFZaWspeaTOAUtrGQqVgWgjYusA5hmHYJ5ju9Pb2vl5bW1to6w3zsT+EjZlXpbKysk1ERER6RUXFvxITE91wJZmZFwDT2bXAnDlz2LOdtl5eXp9duHBhhl1jmLl5hI15wKVjx47tkpKS4kUIeYUQwj4LBC8IQMBCAvn5+WWhoaGbHBwc/uvm5rbPQmXY1bQIGxMut5ubWz8nJ6fFbm5u7omJiU1ffPHFJiacDkNDAAL6C9S89957ZefPnz91+PDhU7W1tXH6D4E9dBFA2OiipOc2SqWS/R7MoB07dox1dnbuibfK9ATE5hAwswD7WISqqqqzZWVlJzds2DBRLBbLzVyCzU+HsOFwiX18fNLKysqmqlSqHxmGeZ7DoTEUBCBgPoEDlNLvRo4cWY6r2LhDR9hwYHnp0qWA5557bqurq6swLi4ON8DkwBRDQMDSAjKZTPH555+L6x+B8I6l67H2+RE2hq+gdPjw4R2WLFnSmlI6hBDS1vChsCcEIMBXgYKCgvLg4OB1lNJMkUh0mK918r0uhI0BK+Ts7Hykpqam27Rp06rj4uJcDBgCu0AAAlYmQCk9P2nSpIulpaXHT548OcnKyrd4uQgbPZZAoVA8Swh5IzExcVJ8fDxCRg87bAoBWxFISEioTktLcxk2bNjbmzZtyrCVvkzdB8JGB2FfX9/0qVOnNhs1ahT7oX97HXbBJhCAgO0LnCaEfE0p3YjHHTx5sRE2jzGSSCSplZWV73Xr1u1qfHx8U1zC/OQDCltAwN4E8vLyzo4YMaKth4dHqlwun2Vv/evaL8LmIVJyubyJg4PDWzt37pzSvHnzLggZXQ8nbAcB+xX48MMPy86dO/fL+vXrh3t4eFyzX4mHd46wedBF2qtXr8ht27Y5MQwzGAcLBCAAAX0F2O/oaDSa9RKJpAqPsP6fHsKm3sLFxeWn6urqZ7Oysmr79OnTUN8DDNtDAAIQuE/gukgkatypU6dVx48fnwAZQuw+bKqqqrw1Gs3owsLCyJCQkJY4KCAAAQhwJZCQkKA+f/58yYoVK8a2aNHiD67GtcZx7DlspEFBQe9mZmaylzCHWOPioWYIQMA6BCil+YSQr4RC4QV7fWvNLsPGxcXliEQi8UhOThbjqZjW8cuKKiFgAwJ1IpHI0d/ff2VpaelEG+hHrxbsKmzUarWzRqMZn5+f/25oaGhrvaSwMQQgAAEOBGQymfLzzz8XVVVVObu7u1/mYEirGMJewkbarVu3cTk5OQ0ppUOtYmVQJAQgYNMClNJvKaUr3d3dd9t0o/XN2XzYuLm5pajV6qjp06fXxMbGOtvDoqJHCEDAOgQopWVjx479rbi4+IharZ5tHVUbVqVNh01VVVX/mTNnfjp48OAO+GKmYQcI9oIABEwrUFxcTGJiYlSNGjXKOXz4cIRpZ7Pc6DYZNlVVVc01Gg37/IlISik+m7Hc8YWZIQABHQXufP1CLpVKP3VwcFhmi5/l2FzYdO7ceVXXrl27p6amdtFxjbEZBCAAAT4JrJ89e/aPq1evTudTUcbWYlNh07Jly1ODBg1qPm/ePA9jYbA/BCAAAUsJzJ07V7506VL277FgW/lejk2ETXV1dZvbt29PpZROYRjGyVIHCOaFAAQgwJVAcnKypqys7FB6evpbEonkHFfjWmocqw+b7t27r925c6crIeRlSyFiXghAAAImFMjWarVpEolklwnnMPnQ1hw2Ui8vry8GDx7sGh8fLzS5FCaAAAQgYDmBUyKRyM+a31azyrBRKpUtIiMjv42IiOiJ281Y7ujHzBCAgPkEUlJStAsXLhSIxeJPFArF++abmZuZrC5sqqqqntdoNO9RSodxQ4BRIAABCFiHAPudHJVKtWfw4MEfuLu7/2gdVf9/lVYVNhKJ5Pgnn3zC9O/fv5M1IaNWCEAAAlwKUEr3azSaVIlEspnLcU05lrWEjZQQUjht2rTquLg49pEAeEEAAhCwawH2S6DDhg2zmsujeR82SqWy2bp169LLy8vfnDNnjqNdH11oHgIQgMB9AsnJyXWLFi1y9PHxebmsrGwHn3F4HTZyudzXwcEhihDC3noGLwhAAAIQeLjAMkdHxxRXV9fzfAXibdj4+fkti4qK8hs0aBD7DVq8IAABCEDg8QLfTJkyJX/Tpk0ZfITiZdgEBASs1mq1rxYUFLjxEQ01QQACEOCjQEhIiFogEGw7duzYWL7Vx7uwUSqVL+/atetjXHHGt0MF9UAAAtYgEBsb++fRo0f3HTx48C0+1cursKmqqnpdq9XGEEK68gkJtUAAAhCwJoG8vLyz/fr1Y7+Lk8mXunkTNp6enr8uXry4aWhoqDdfcFAHBCAAASsWOEUISRSJROv50AMvwqZFixYnhgwZIomPj2dvqIkXBCAAAQhwIFBYWHhxxowZly9evNiRg+GMGsLiYVNVVTU2Pz//4+DgYLFRnWBnCEAAAhD4h0BSUlJNZmZmRXl5uUUDx6Jho1AoxlJKZYSQVjhGIAABCEDANAKFhYUKqVQaLRaLV5tmhieParGwCQoKytq8efOzDMO0fnKZ2AICEIAABIwUKNNqtfESiWSNkeMYtLtFwsbDw6N06NChHvHx8fgejUHLhp0gAAEIGCRwpnPnzrflcrm/QXsbsZPZw2bmzJkxN2/enCaTyfAZjRELh10hAAEIGCIgk8kU3377rUKhUHQ2ZH9D9zFr2KhUqr6EkPkMw/Q0tGDsBwEIQAACxgnExcWVJyUljREKhXnGjaT73mYLm4iIiMjU1NShhJAQ3cvDlhCAAAQgYCKBAkrpB0Kh8KCJxn9gWLOEjY+Pz5KmTZuO2LNnj9AcTWEOCEAAAhB4sgClNGvkyJHf5eTkrHvy1sZtYfKwcXZ2/rimpmaOUqk0rlLsDQEIQAACnAuIRCLi7OycXFNTE8354PcNaPKwUalUC4qKij4IDAw0ZR8YGwIQgAAEDBAoLi4m4eHh7J7s41z2GDCETruYNGxUKtU0hmE+IYTgCZs6LQc2ggAEIGARgTpK6SyhULjEVLObLGwCAwO/2bp1678YhvExVfEYFwIQgAAEOBP4g2GYWWKx2CR3ijZJ2HTs2PGLF198MSwpKQl3cObsOMBAEIAABEwrwD4LZ+/evTknTpx4m+uZOA+brl27ht+6dWvF999/jy9tcr1aGA8CEICAiQWCgoIUcrn8P2q1ejaXU3EeNgqFInH//v2xuCCAy2XCWBCAAATMI8BeMDBz5syyc+fOcXrfSk7DRqVSRTAMk0YIcTYPC2aBAAQgAAGuBSil1YSQaUKhcC1XY3MWNh06dFgRFxf3Yr9+/TpwVRzGgQAEIAABiwmwdxaYIhKJDnNRASdh07hx46Tr16/H4IubXCwJxoAABCDAD4Hp06eX5OXlRSsUil3GVsRJ2ISFheV06dKlf1RUlLH1YH8IQAACEOCJwH1f+DQ6K4weQKlUSgkhywkhfjzxQRkQgAAEIMCRQEJCgmrfvn3bS0pKxhozpFFhI5fLmzg4OGQQQkYYUwT2hQAEIAABXgts1Gg0Ez08PK4ZWqVRYUMIYbZs2UJwmbOh/NgPAhCAgHUICASCGe7u7p8ZWq3BYcPeJSA4OHjQvHnz8OVNQ/WxHwQgAAErEcjLy/s9ISEhz9C7CxgaNuznNIW4+sxKjhKUCQEIQIADAfZxBIbeHdqgsFEqlcMJIV8RQhpwUD+GgAAEIAABKxAoKiq6nZqaunXfvn3sU5f1eukdNnK5XOzg4MAGzQC9ZsLGEIAABCBgCwI7NRrNGA8PD4U+zegdNgMGDMhZs2ZNf30mwbYQgAAEIGBTArNEIlGqPh3pFTa+vr7pYWFhryUkJHjqMwm2hQAEIAAB2xGIj4+vyMnJyfr999+n6tqVXmHDXuqMiwJ0pcV2EIAABGxTwJBHSescNhUVFT0cHR03EELa2iYfuoIABCAAAV0FEhIS1Hl5eZt1vRRa57BRKpULCSHv61oItoMABCAAAZsXWCQSiXS6KaZOYTNy5Mh3Fi9eHE0IaWXzdGgQAhCAAAR0EqCUlhFChgmFQvZxBI996RQ2+KzmSYz49xCAAATsU2DDhg1fT58+fQUhZM/jBJ4YNu3atVsWFhY2LD4+3s0+KdE1BCAAAQg8SiAxMVH91Vdfnbt8+XIPo8Jm0KBBhStXrmRvT4MXBCAAAQhA4AEBXZ9589gzm6qqKm+NRrOVUvosfCEAAQhAAAIPE8jLyzvdr1+/vu7u7n8+SuixYaNSqd5hGGYpeCEAAQhAAAKPfZuM0slCoXCZ3mEjEAhko0ePfjMlJaUdiCEAAQhAAAJPENghFApfoZQyD9vukWc2PXr0WBccHPxWVJROl1BjFSAAAQhAwI4F2M9uJk6c+LNSqQzQK2xwubMdHzVoHQIQgIABAo973s1Dz2zUanUrjUaTSwhpb8B82AUCEIAABOxQYMCAAdcbNGgwtri4eNPf239o2FRVVY3TarWr7NAKLUMAAhCAgBECAoFgvLu7+5c6hU1GRkZueHh4XyPmw64QgAAEIGCfAhtEItFbTwwbX1/ftFdffXVMbGxsU/t0QtcQgAAEIGCEQMXYsWOjt2/fvub+MR72NhqzZcsWEhgYaMRc2BUCEIAABOxRgL0qberUqacvXLjg97iwkY4cOfKzxYsXd7FHJPQMAQhAAALGCwQFBVX++uuvw++/OecDZzZKpbIFIWQ/IcTH+OkwAgQgAAEI2KNAYmJi9f79+yccPnx4873+HwibysrKIQKBINMecdAzBCAAAQhwJ6DVal+XSCQPD5shQ4YUL1++vBd302EkCEAAAhCwU4GFIpFo9sPObGQTJ04cvWDBgtZ2CoO2IQABCECAI4GcnJySiIiI9+59bvPX22g+Pj5Lhg4dOmnOnDlOHM2FYSAAAQhAwE4FkpOTby1btqzk2rVr/2IJ/gqbPn36fJuVlfW6nbqgbQhAAAIQ4FCAvQQ6MjLyV7lc7v9A2KhUqgUMw3zA4VwYCgIQgAAE7Fjg7bffLvruu+/6PBA2SqXyv4SQV+zYBa1DAAIQgAC3AttFItG//wqbxo0bJ61evXpCSEiIhNt5MBoEIAABCNirAKX0/I0bN57x9va+cfczGz8/v+WDBg2ahAel2eshgb4hAAEImEagd+/eK06dOhV5N2w8PDxKly9f/gzuh2YabIwKAQhAwB4F7r9I4G7YLFq0KGP06NET7BEDPUMAAhCAgOkE6p/eSe+GjVKpXEkIGW+66TAyBCAAAQjYo8DmzZt3REZGvnwvbPIIIaH2CIGeIQABCEDApAL5IpGoLxs2sk2bNo0PDg72Mul0GBwCEIAABOxR4IxIJGpPmzVr9tGkSZNm4jY19ngMoGcIQAACphX4+OOPb2/btu012qpVqyXDhw9/F5c9mxYco0MAAhCwRwH2irS33nrrIB03btyU5OTkdHtEQM8QgAAEIGBaATZsxo4de5QqlUr2FjXsrWrwggAEIAABCHAuMH/+/A9pZWXlSIFAsJbz0TEgBCAAAQhAgH28AKUR1MvL69TRo0fbQwQCEIAABCBgIoF32EufGaVSaaLxMSwEIAABCNi7wHPPPfcbwsbejwL0DwEIQMDEAuwta+iiRYu+HD169FgTz4XhIQABCEDATgXuho1SqZx7p3+ZnRqgbQhAAAIQMLFAz549z7NhE3/nYoF5Jp4Lw0MAAhCAgJ0K3D2zwQUCdrr6aBsCEICAmQQQNmaCxjQQgAAE7Flg1KhRu3FmY89HAHqHAAQgYB6Bd9jPbN4ihKwzz3yYBQIQgAAE7FBgJO6NZoerjpYhAAEImFPglVde2cjeG62XQCAoNufEmAsCEIAABOxDgL3r85gxY47SJk2aHFi/fn3PwMBA++gcXUIAAhCAgNkEFi5cSL755pt09kmdC95+++2o6OhoR7PNjokgAAEIQMAuBIqKim7Onj17CHs1mrR79+7ZO3fubGwXnaNJCEAAAhAwp8BpkUjkx4YNUSqVeYSQUHPOjrkgAAEIQMD2BSil+UKhsO+9sFlJCBlv+22jQwhAAAIQMKfA9OnTf9qwYcNzd8NGpVJ9yDDMfHMWgLkgAAEIQMD2Bdhb1dx9WCf7vx4eHqXLly9/Blek2f7Co0MIQAAC5hJgL3uOjIz8VS6X+98Nm+bNmx9as2ZNd4SNuZYA80AAAhCwD4EpU6a8vWnTpoy7YdO4ceOkCRMmTImLi3Oxj/bRJQQgAAEImEHg99u3b3dq0aLF9bthw76USuV2QsjLZpgcU0AAAhCAgB0IMAyTLRaLX2Fb/StsVCrVAoZhPrCD/tEiBCAAAQiYQeD555//47fffvN5IGwUCsUblNKvzTA/poAABCAAARsXuP/igAfChr1H2tq1azv36dOnkY0boD0IQAACEDCxwMcff3wrMzPzi7KysncfCBv2tjUBAQHf5eXl4SIBEy8ChocABCBgBwLf3/mOjexOtuz5e9iQtm3b/vHDDz942wECWoQABCAAAdMKLBSJRLPvTfHXBQLsH6hUqtcYhtls2vkxOgQgAAEI2LoApXSIUCjMelTYtNRqtUWU0ta2DoH+IAABCEDANAKJiYnVBw4cmHDgwIG/Tl4eOLNhp83IyNgdHh7+kmlKwKgQgAAEIGDrAvX3Qwu+93kN2+8/wsbLy+tUenp6e9y6xtYPB/QHAQhAgHsB9pLn8PDwf+TLP8KGvQTa39+/a3Z2thP3ZWBECEAAAhCwcQE5e3WzSCQ6dX+f/wgbdqOMjIyY8PDwvjYOgvYgAAEIQIB7gQ0ikeitvw/7sLAhCoViHKV0Ffc1YEQIQAACELBlAYZhxovF4i91CptLly751NXV7SKE+NkyCnqDAAQgAAHuBBISElSZmZnrKioq3tMpbNiN2rdv/2dxcbEXd2VgJAhAAAIQsGWBe0/lfFiPD30bjd1QJBL9nJGR0RlXpdnyoYHeIAABCHAjwF6Flp+fH52WlpasV9iwFwp07tx5c0FBgRs3pWAUCEAAAhCwYYEdIpHokc9Ee+SZDQuSmJiYGhkZ+Y/33mwYC61BAAIQgIABApTSyUKhcNmjdn1s2JSXl3s7OTltJYQ8a8Dc2AUCEIAABOxAIDc398zSpUtjioqKvjUobNidlErl3Dv/z94mGi8IQAACEIDAPwQed2HAvY0fe2bDbtS8efNDY8aMaRMXF4fPbnCQQQACEIDAAwIJCQmXcnJyvjlz5sw7j6N5YtiwFwoQQgqVSiWIIQABCEAAAn8XeOC5NQa/jcbu2LFjx4x9+/b1YximFZwhAAEIQAAC9QJ/UEqHCoXCg08S0eXM5u4YSqVyISHk/ScNiH8PAQhAAAJ2I7BIJBJF6dKtPmHTnRDyNSHkaV0GxjYQgAAEIGC7AomJierdu3dnnjx5cpIuXeocNuxgbdq0OZ+amuqDuwroQottIAABCNiugC5XoN3fvV5h4+vrm+7q6jp6165dTW2XEJ1BAAIQgMATBI6OHz/+s23btv1HVym9wqZ+UGbLli0EZze6EmM7CEAAAjYnMEskEqXq05XeYVNRUSFycHBYQykN02cibAsBCEAAAtYvwDBMjkajGeXp6anX92H0DhuWSqlUDieErCaENLR+OnQAAQhAAAK6CCQnJ9etW7futFwu99dl+/u3MShs2AGGDx9+KC0tjb1CDS8IQAACELADgfqLAubdaVXvW5gZHDbsFz2Dg4NfnTdvntgOjNEiBCAAAbsWyMvLO5eQkFBw4sSJiYZAGBw29ZPhYgFD1LEPBCAAASsTYBhmhlgs/szQso0KG4VC0ZRSuoIQ8qahBWA/CEAAAhDgvcAGhmEmicXiq4ZWalTYsJMqlcogQggbOH6GFoH9IAABCECAnwLz5s2rqq2tTVq5cuWnxlRodNiwk4eFheVERkb2x3dvjFkK7AsBCECAXwILFy4kKSkpbFFGZ4XRA7BViMXifu7u7v/Zu3evB7+oUA0EIAABCBgqMH369JKsrKzttbW1cYaOcW8/TsKGHaxjx45fBAUFDUhMTPQytijsDwEIQAACFhc4SCmdKhQKD3FRCWdhwxajUqkiGIZJZx/wyUVxGAMCEIAABMwvsHfv3mtBQUHvCIXCtVzNzmnYsEUpFIpESmksVwViHAhAAAIQMJ9AcXExCQ8PZyfkNB84HYyt7vLly8LJkycXLF68uLP5eDATBCAAAQhwIRAUFKSQy+X/UavVs7kY794YnIcNOzB7d4EGDRoMzc3NdeayWIwFAQhAAAImFSieOXPmurVr1y7nehaThA1bpEQiOZ6eni6SSqW4nQ3Xq4bxIAABCHAv8KdAIHjP3d19M/dDc/ye3N8LVKlU0wghixiGecoUxWNMCEAAAhAwXqCoqKiuT58+s4RC4RLjR3v4CCY7s7k3nUqlWsAwzAemagDjQgACEICA4QL3XRAQTAjZY/hIj9/T5GHj7+//79LS0m1KpV7P2TFVvxgXAhCAAATuE2AfG+Dq6pp86dKlaFPCmDxs2OJbtWq1pFmzZiP27NkjNGUzGBsCEIAABHQXYBjmu1GjRmXl5OSs030vw7Y0S9jREkuZAAAPAUlEQVSwpUVERESmpqYOJYSEGFYq9oIABCAAAQ4FCiilHwiFwoMcjvnIocwWNmwFKpWqL8MwCwghPczRHOaAAAQgAIF/CsTFxV28c6eX1OXLl39iLh+zhg3b1MyZM2Nqa2un4Qmf5lpizAMBCEDgfwIymUzx7bffKhQKhVm/eG/2sGFb9vDwKB06dKhHfHy8Gw4CCEAAAhAwm8DZ1157rWTfvn3sRxpmfVkkbNgOW7RocaKkpKQhpbS1WTvGZBCAAATsUIBSel6j0cyVSCRrLNG+xcKGbVahUIyllM4jhHhbonnMCQEIQMAeBPbs2aMICgqKFovFqy3Vr0XDpj5wxhUWFi4ICQmRWAoB80IAAhCwVYGkpKTqzMzMyvLy8g6W7NHiYXPvLbUhQ4awn+G4WBIDc0MAAhCwJYHCwsKKGTNm1Fy8eLGjpfviRdiwCJ6enr8uXry4SWhoaCtLo2B+CEAAAtYuQCk9yTBMkkgkWs+HXngTNixGVVXV61qtln3wWgAfcFADBCAAAWsUyM3N/a1v377sZzSZfKmfV2HDoiiVypd37dr1cf/+/TvxBQl1QAACELAWgdjY2D+zsrKqlUplFz7VzLuwYXECAgJWa7XaVwsKCvA9HD4dLagFAhDgtUB0dPTZw4cPFx07dmws3wrlZdiwSH5+fssdHR0H79mzBw9f49tRg3ogAAE+CnzDMEyyWCw+ysfieBs2LJZUKh2emZn5IsMw7/ARDzVBAAIQsLQA+zyaioqKreHh4TM8PT3PW7qeR83P67Cp/wynGSEkat++fXP69OnjxFdI1AUBCEDA3ALJycl1ixYtcmzTps3L586d22Hu+fWZj/dhU9+MlBBSOG3atOq4uDh8F0efFca2EICATQoUFBRUvvHGG+yX4U36hE2u8KwlbO72K5FIjn/yyScMrlTjavkxDgQgYI0CDMPsZxgmVSKRbLaW+q0qbFhUlUr1L4ZhZhJChlkLMuqEAAQgwIUA+/lMVlZWaUpKygQPD48fuRjTXGNYXdjUB07L9evXL/rzzz+Hzpkzx8FcWJgHAhCAgKUEioqK6gYPHuzo4eGRKpfLZ1mqDkPntcqwqW/27uc4U6dOrZo7d667oQDYDwIQgIAVCJx68803f8vNzV1450LdPVZQ7z9KtOawudtM9+7d1+7cudOVEPKyNS4AaoYABCDwBIFsgUCQ5u7uvsuapaw+bFj8ysrKNgKBYOqdj3TYn6eseUFQOwQgAAFWoLi4uC48PNyxurq6jYuLy+/WrmITYXNvEUJDQ7f5+fn1mDdvnoe1LwzqhwAE7Fdg7ty58m3btl2+cOHCJGt92+zvq2dTYcM216lTp1Varfbl77//Hg9js9/fVXQOAWsW2KDVapdKJJJia27C5sOGbbBdu3YvFxcXd6KUsv9V4GtLC4ZeIAAB2xQoLCyUS6XSTx0dHZe7ubnV2FqXNndmc/8CVVZW9s/Ozo5xc3PrExgYaGtrh34gAAEbEGC/OxMTE6OqrKy8qFKpbPZZXjYdNuxx6ObmlqJWq6Nwqxsb+K1ECxCwPYGycePG/VZcXPwT+/eU7bX3v45sPmzutdqtW7e1u3fvbsAwzFBbXlD0BgEI8F+APZvp3bv3txqNZqVEItnN/4qNr9BuwoalUqvVzhqNZnx+fv67oaGhrY3nwwgQgAAE9BOQyWSKzz//XKxWq11s8bOZR2nYVdjcQ/D3988oLS2dEBUVpZ09e7ZAv0MFW0MAAhDQX4BSWvfuu+8e+/nnn4+WlpZO1H8E697DLsOmfslknp6ew37++eeLhJBQ615GVA8BCPBVgH3LLDAwMJ9S+pVQKFzH1zpNXZc9h81d2/Lycu+nnnpqNKV0NCGkranBMT4EIGA/AgkJCeq0tDS3qqqqVu7u7n/aT+f/7NTuw+Yeybhx46Z8+eWX6bNmzbodHR2NW97Y828FeoeA8QLXevfuXaNQKCovXbrUzfjhrH8EhM2Dayh74YUXOm7bto19/HS49S8vOoAABCwgsIVSulYoFGZZYG7eTomwecjSKBSKppTSNwkhbxFCXuTt6qEwCECAFwLs5zIymaza3d29aOPGjSPEYvFVXhTGoyIQNo9ZjN69ew8tKiraNHnyZDlu7smjoxalQIBHAnl5eWdHjBjR1lofamYuSoSNDtK+vr7pAQEBnTIyMti7SfvpsAs2gQAEbF/gNCHka0rp10Kh8ITtt2tchwgbPfwUCsWzhJA3vv/++1FSqdRTj12xKQQgYCMCiYmJ1UuWLHEZNmzY25s2bcqwkbZM3gbCxgDijh07fnHixImJuN+aAXjYBQJWKsAwzPmNGzf+GB8f366mpuZ9W3nOjLmWA2FjhPSIESMmffbZZ76U0tcJIU8bMRR2hQAEeCpQUFBwMTg4eC2lNFMkEh3maZm8Lwthw8ESKRSKrhMnTvzMy8urg0wmE3MwJIaAAAQsLBAWFnbtyJEjTZo3b3748uXLPSxcjtVPj7DhcAl9fHzSysrKpq5bt+5E//79O3I4NIaCAATMJ3CAUvrdyJEjy3Nycuz29jJccyNsuBYlhCiVSvbigUHsz8KFC8Oiomz6MRUmEMSQEDCvAPs9mbi4OLVEItm/cePGt0UiUYV5K7D92RA2JlxjNze3l5ycnBbL5XL/mTNn3vzggw8amHA6DA0BCOgvULNly5aDcXFxLW7duvWeWq3O1X8I7KGLAMJGFyXjt5FNmDBB/dFHH3lRSl9mGOYZ44fECBCAgCEC7FlMbm6uUiaTfcUwzHaxWLzXkHGwj34CCBv9vIzeurq62nfYsGHp3t7e7d3d3dviLTajSTEABHQWiI6OPrt7926GYZgdFy5cmKHzjtjQaAGEjdGEhg0gEAjmde/evW3r1q3bfv755+64dNowR+wFgccJsGcxN2/eZC9d/o5SutPb2/tGbW1tAdTML4CwMb/5P2ZUKBTtCCFh0dHRU9mzHTw9lAeLghKsWqCoqEgTHx9fXV1draaU5vzxxx/TrLohGygeYcOvRZR17dq1dUlJyWilUnmEEPIcv8pDNRDgr0D9EzGPMAyTGxsbq/jiiy+O4lv+/FkvhA1/1uKBSqqrq11v3br10vTp02cLhcI2oaGhroGBgTytFmVBwHICAwcOrL18+bK6pqbm0qFDh1709vZWW64azPwoAYSNFRwbLVu2/LS8vHx6RETEz6mpqUJCSAsrKBslQsAkAvVnMBcJIYUMwxQ+++yzncvLy7fgLMYk3JwNirDhjNI8AymVSvYRB9KZM2eyn++0lkqlTXHGYx57zGJZgfnz51/Nzc29XlNTU92lS5ekHTt2rLVsRZhdHwGEjT5a/NpW6uPjM4S9PU5GRkbu4MGD2zMM48OvElENBAwXqL+SrDIkJIT9ouXe7t27dykrK9uMMxjDTS25J8LGkvoczq1Wq1vdvn27j0QiWTd58mRF06ZNxfgOD4fAGMpsAnPnzlUsXbpU7OnpyT6QbFdFRcV7ZpscE5lMAGFjMlrLDdysWbOPOnTo4J2dnf07pfSFO7+w7E9jy1WEmSHwcAH27EWr1dbu2LHj4oIFCzYQQvZfuXJl/9NPP80+qHAP3GxHAGFjO2v5yE5ee+218VlZWSvZDaZMmaKSyWTsRQZ4QcCSAieysrLKEhMT21z+/xd7t1qEiyVXxMRzI2xMDMyz4aVt2rRp/MMPP9yilPaIiooa5eLi0qJBgwbN8ZYbz1bKxsoZOHDgzevXr18pLS0VqlSqvnfuEXjI3d39so21iXYeI4CwsfPDQygULqSU9u/Vq1fVypUr2V/+54qLi1viCjc7PzCMaJ99a2zBggU3s7OzdwkEgiNarfZIx44dpSqVKhtnL0bAWvmuCBsrX0Cuy5fL5eL58+ePTktLS/H391fExcXVhoaGtuJ6HoxnGwL133lhmznJMMyxnj179rh69epVQshulUqFBznZxjJz0gXChhNGmx1EeubMmR+aNm0a4Ojo2GXy5MkTTp8+7RcSEuIUFBTUGGc/Nrvuj22MYZiqmJiYKxkZGa1btmx5SiqVfrpu3brVlNKb9imCrnURQNjoooRt7heQ3XnrrcnQoUMrEhMT69hn88TExAxo0qSJ8KmnnmqMz35s62DZu3dvTWJiIikpKXFesGBB2vjx47dRSo+LxWK5bXWKbkwtgLAxtbB9jC9zc3Nr7O3tLcrLy9tPCOlACPFLSEh4oVGjRm69evUiOAvi94HAvh2WlJTE3n7/eocOHU4vW7ZsNcMwp/r16+dWUlJSXV89rhbj9zLyujqEDa+Xx7qLEwgEMi8vL7cbN25IT5w4kaHVattSSp+WyWT/atSokYtAIHDEmZB517ioqOhWUlJS3c2bN2+wP8XFxQsJIWdHjRrllpeXV15XV8fgQ3zzrom9zIawsZeV5lefMrFY3PT27dshp0+fXsQwTGtKqU9ISMjrQUFBmgYNGjhHR0c78atkflfDnpmwr/ozyKv5+fmq+fPnN//ll1/cWrdu/fuhQ4diBQLB+YEDB3oeOHCgCmcq/F5PW6wOYWOLq2q9PUnZm4w6Ozs3OHXq1HpKaUv2RywWr2Jb8vf3VxUWFp6llEoYhvFYtGhRI/Ytuvv+krXeznWonA2Uffv23b59+/a1+Ph49lYu8k2bNtHJkyeHsx/Ue3p6Htq+fXtygwYNLri6urJvfbGe7Atvf+ngi01MK4CwMa0vRudWgP3L8+5fnD4+PgM1Gk3/q1ev9nZycnrq+PHjiyml7uyPUCiM7tSpk5J9my4/P/8cIcSZYRiXlJQUV4FA4MDuf//bd/fOCkwVWo8aPzk5WVNXV3eTvV1LXFzc74SQ6m3btjmOHz8+qL7H3w4dOjSfUqqaNWuWd2Zm5ihKacG1a9d2I0C4PbAwmukFEDamN8YMlhH4+3/VSxs2bBjaqFEjp27duh3dtGnTLwzDNImOju61devWsWwICQQCwbFjx9gvuToxDOMkFouXsKW3bt363MGDB9lLewVr1qzxnTVr1hj2z319fc8fOHBglUAg0Hz55Zc+s2fPnsT+uZeX1+mffvrpY/ZS4I8++ujptWvXvq7RaLQSieRwUVHRp7du3brWr1+/gDNnznSvra3V1AcHzj4sc5xgVjMJ/B/VF3HBx7/g0gAAAABJRU5ErkJggg==;" vertex="1" parent="1">
          <mxGeometry x="66.65" y="100" width="1018.7" height="646.91" as="geometry" />
        </mxCell>
        <mxCell id="IQgT02N7gyP_bAqmJs0r-1" value="" style="shape=image;verticalLabelPosition=bottom;verticalAlign=top;imageAspect=0;aspect=fixed;image=data:image/png,iVBORw0KGgoAAAANSUhEUgAAAQIAAACPCAYAAAARFtXiAAAAAXNSR0IArs4c6QAAIABJREFUeF7tXQdYFNf2PztbWXpdQBHELjYCduy9Rn1qYjRGRaOxoLHEEhN5vhh9ElQ0Sl6MUZNojBoT7BgLGnsnFgwaFVQQpApL2132/z8jdxzWRUF3l4W99/v4RHZ2Zu7vnPnNOeeec64A6KAIUAQsHgGBxSNAAaAIUASAEgFVAooARYASAdUBigBFACgRUCWgCFAEKBEYQgeIe6U1xMnoOd4IASqL14SPxgj0A8fHhfwuCA0NFU6YMEFha2trpdVqHclXpVKporCwMEUsFmuVSmVWXl7eE29v7+ySzwlBUKJ4TSXlfY2TRcnfBBcvXrTx8vJykclkLvg3mUzmXlBQ8Bh/R3kUFRU9USqV6pEjRybHxMQU68gE/0vlAtQiIDrGVzDB/fv33ZydnRuKRCJvoVDYimGYxgzD1BYIBLUqoMuPtVrtKY1Gc7qgoOBqbGzshaCgIGWJ4lHlKz+QKBv258qVK7a1a9d+y9raurVAIGgnFAqbAUC5ZaLVau8XFxff1mq1cVqt9pparY7Lysr629PTM4NHCBYpG0u2CDgFu3Pnjqenp2dLkUjUTSQS9RYIBL7l19NyH6nWaDTHNRrNd/n5+ecdHBzuU1LQi10pUk5JSfGxs7MLEovF7wuFwm7lRrsCB2q1WiSH3SqVKiYpKemCr6/vE0uTjaURAfvwr169Wjxs2LC6jo6OXcVi8QcMwwRUQG9Ay74zynpxCEBQDlQ1Gs1RjUbzvzt37hzesWPH09DQUI2Fm6msbD788EPh9OnTnX19fVE204RCYZtXycYQ8uBfQ6vVnissLPyuqKjo+LZt2+5PnDgRZUPcilfdTpX8vBwqWyXnpXvTgs6dOwvXrl3r4uvr21MqlYYIBIKXPvxarRaKi7WQX1AEWVm57E9Obh48zcmD7KdKyMpSsp/xh1QqBlcXe/BQOIGToy14uDuBja0VMAIkhzKhVhcXF39fWFi46ccff7w4ceJEtQURAvf2X7FihXTMmDGBdnZ2HwmFwhFlaR0rF60WnmYrITUtG548yYLklAx4nJIFxcWln1VruRTs7OTg4mwP1nIZWFvLwMnBFhwdbUAiEQPDvFQu7C1otdrjKpXqmzt37hwKDQ3N3rFjB5JCtRvVnQgYfMOEhobWdXZ2Hi2RSD4GAKk+KaJyFRWq4FFyOjx8+ATu3E2CW/EPIC396RsJ3UPhCP7N64JfYx+o7eMOMqm4TFLQarUnioqKln377bdHQ0JCkGWqq79K9I7ZsGGDfPjw4b3kcvl8hmHe0gc2Pvz5+UXwz70kuH7jHlyO/eeN5eLibAdNGvlAnToeULOGK3i6O4FYLHoZYSvVavXytLS0H/78888Hw4cPr1aEUF2JgCMAFxeX6WKxeDwACHWVDN/4mVk5cPvOI7h4KR6uXr8LGo3xLEChkIGWAQ2gfZvGUL9eTRCLhHoVT6vVpqpUqskXLlw4VBJgNN5NvRHNVfjLrPnfuXNn5tNPP7Vu167dv6ysrMIFAoGD7pnQ3C8qUkHc34lw7uLfcPZ8XIUvVpEvoCxaNKsDAf71oEF9L7CzlbMWg76h0Wi+zcvLWxEcHHynulgI1Y0IWBcgMjKyZr169eYKhcIJugSAb5ecnDy4eSsRjhy/Cnf+SaqIvhjsWJFICH26B0Kb1o3A3d2JdR/0jDyVSjX17t27Oxs2bIgrDlWVEDgCWLZsmXOzZs1GymSyz/QRAJr3SckZcPb8TdgXfcFgeFf0RE0a+0CnoKbQqGEtkFtJ9RG2Sq1Wh2dlZa1Zu3bt49DQ0KoqGxaa6kIEOA9m7dq1VmPHjh1vZWX1JQBY8YWPb//kx+kQ8+dfcOxErFHf/BVVuqaNvKF/3zZQt44nMAyjlxAKCgqmxsbG/tqmTZvcKkQILAEMGzZMMHnyZNvAwMDhNjY2EbjcrztJtVoDf8c/hKi9p+H23cohZ33Ai0QM9OgaAB3aNQF3haM+QkCynhYXF/dL8+bN86qqO1cdiIAJCAgQ7tu37y03N7etukt/SAAPHz2BX6NOwl/X71X0GTXp8Y4ONhD8QS+oX7cm66++aC5r01Qq1fioqKhDw4cPLzRjQuBiAMeOHbNt2bLlIGtr65UA8IILoFKp4a/rd2Hr9mOQkYkcZ76jbatG0L9PG/Bwf5EQtFrtFaVS+f64ceNuVUV3oSoTAWsF/PDDD7Jhw4Z9IpVKFwoEAu51ii5ASmoW/Lz9KPx1A5fsq86wkolh7Oje0KJpHRCLXwht4ETSlErlqB07dhwfO3YsEoK5BBU5AoiKipJ36tSpp52d3VqBQKDQRR9XXC5duQ2/7IyBXGVB1REOALRp1RAG928Prq72uhYCuguf/vTTT2vMTC6vxLeqEgHet/DatWvejRs3/p1hmCb8meYq82HfwfNw8I+LrwTAnA+QSUUQPKYvNG9SuywL4W+lUjlp48aNZ0JCQlSVaCFwyVlhYWGy4ODgjg4ODt/oy8QsKlLD1b/+gQ2bD0KRCldKq+4Y2K8N9O4eCFZWpReitFrtyaSkpBE1a9ZEH6dKxA6qIhEwjRs3Fh09ejTIzc1tj0AgkBNVQivg79sPYc03UZCXhy/K6jGkUhFMnzyYdRlw5UGPy3A6MzNz9pEjRy4NHz4cny5TKR9HAB9//LFkzpw5LRUKxTqGYfx07xEJ4PrNe/D9j4dAWcUsgJdpEa4ufDRhADSoV6OUdaDVajMzMzP7Tpo06UJVcBWqEhGwrkDnzp3FUVFRwXZ2dqvx/0RI+fmFsHnrYTh34Vb1ePr1zAKVbtqkt8G3trveoKJGo9mTnp7+WWRkZFxoaKgxCaEUAcyaNauFQqFYLhKJgnRvW6XWQPzthxC5fi8o86qWC1ARReraqQUMHdwBrGQS/tfUhYWFU3v37r0hJibGrDNHqwoRsCTQtm1bSUxMzPcSieRdPtqPH2fA0vBf2Kw/Sxg1PV1g7Ps9wccbCeFFEWo0mr3p6emfRkZG3iohBIwhGCKOoEsAzRUKxVcikai9Lu6Yj3H3fjJ8t+kApD4hhZjVWzoKNweYOW0ouLnal5qoWq0Oi4yM/Myck8SqAhGwJDBu3Dh5ZGTkzxKJpB/fFbh89TasW7+XTQe2tNG4vheMeLcreLo76yUEtVq9Lysra9HPP/98vSSG8LqEQAiACQsLk44YMaKpQqEIF4lE7XQxJ6s0G3+IhvsPUi1NJKzrhlZbsya+pWpONBrN9nXr1o02VzIwdyLgSOB///vfEZFI1JJPAtt2xsChI5ctTtl0J4zZikMHBbF1DvpqGrDk9v/7JMy4cePGxfDwcOWOHTv01eXrnpbohgCXZ5csWYJ5AJ0cHR2XMQxTXx8BPE7JYJcBb8QlWLxMhgxoB/36tClF0OZMBuZMBCwJDBs2zGrr1q0xIpGIKxLC7LPwiF/h5t+JFq9wfABavlUfhg3pCJhHX0aRU35BQcEXmZmZu6Kjo+/v379fxSMF/qnYNOB+/fpJhw4d6uXm5jZaLpfPAoBSDjB+AS2Ax6kZsGXbUTZbk47nCGAS0phRPXXJYOe6detGmZtlYK5EwJJAzZo1JXfu3NkslUqHEXiRBL6K2Alxfz+gOlcGAoFICIM7sFV3ZeXLA0BmUVHRhpycnJ15eXmYqKQqLCwUSKVSqY2Njau9vf07Uql0LADY6LsMEkBKaib8+PMRth6ADv0I+DXyhhlTBgOmlJOBlkH37t1HmlMA0RyJgPijEqVSGSaXy6c+JwEthK3aDrfiH1K9KwcCDerUgPfe7Qo1PF30LjuW4xQvHIKZgI+S0uH7zQfhQVLa65zC4r7TuFEtmDn1X6VkUFRUFDZq1Kj5JRZZpQe4zJEIcElQnJCQMLBWrVrb+ZbA8pU72DwBOiqGgI2NDN4b3pUtu8Wa/JdYCXpPjG9/TNK6duM+bPnlCFsSTEfFEGjf1g/Gvd+rFPa5ubnv2Nra7jRh3keZN21uRIAkIIyNjX2rWbNmp0meAJakbth4AE6dv1kx9OnRLyBQt7YH9OgWwOYi2NvbsG+pZ0ogeFaCptWy64xqlQaysnPhn3+SYH/0BXiYTN/+b6pOQW2bwLjRPbn4jVarLUpJSfH38PDA5BdTJYHpnYY5EQGbNhwaGuq0aNEifO2LyR0f/OMS/PJrzJvKgX5fDwJeNdzAt7YH1PDAUmiAB0kZkJD4GO4nplC8jIDAu0M7Q6/uz5tjabXax0eOHGnYo0cP7IBTaS6CuRABGxz09PSUPnjwII5hGK4zbfydJFgWvg1bRhlBLPSUFAHTIiBkGPhk1nCoX6cGd2GNRnO2devWHS9dulRpberMgQhIcFCcnp4+xcnJKZwghPUC0z+JBKxVp4MiUF0QsLG2guVfBJcqVsI8Dxsbm69LXASTv/XMgQjYuMDq1asV06ZNw3Uo7p4+nvsNZGVjYx46KALVC4FaXq4QuuB9frxAefz4cZ8uXbrgHgsmjxdUNhGwcQGFQiFNTk5OFggEtkTcv/x6Ag7+UXmtqqqX2tHZmCMCwwYFQd/erblbKy4uvoIb6gCAyQuUKpsIMMtClJiYONLLy2sDQSQtIxs++XQDjQuYo/bSezIYAriMG77sQ3Cwe56zlZubO9zW1nZXCRkY7FqvOlFlEgHrEgwePNhu165dpdamPpwWAZi4QgdFoLoj4OnhBEsWYQLns6HVatPGjRvntWnTJkzWMJmLUFlEwK4S4B4DSqVym1wuH0CA2HvwPPz6+5/VXf50fhQBDoGR73SD7l1acP9XqVQbJBLJRFMGDiuLCJAEROHh4YqZM2dyieqYwTZh6kqLLCmmz4XlIoC7MK0K+whEz7tP5a1bt04xZcoUbLBhEqugMoiADRCiNZCfn39MJpNxpcXLV+yAuHhawGK5j4TlzrxT+2Yw5v0eHAAajeaYSCTqaarAYWUQAWsNhIWF1Zg9e/ZdMnNsZDkpJKJkg1HLVQg6c8tEAHdaWrtyKr9JrWrTpk1uY8eOxYxDo1sFpiYCzhooLCw8LJFIuJ1u53/+PTxOzbRMLaCzpggAgH+zOhAyeRA/VrBdIpGMNIVVYGoiYCsLQ0NDFYsWLeLa2KA1MHEaboBDB0XAchHQYxXkDxw40GXPnj3Y9dWoVoEpiYCzBjIyMsIcHR0/IiIPW7UTbt6i7a0s9xGgMycItGnZCCYG9+UAKSwsXCGTyeYa2yowJRGwsYERI0Y4btmyBbMI2WurNcUwYQruhkUHRYAigBuurgmfwvUtwLwChmGwQsmY7elNtgkqlzdw/fr1Pn5+ftiMgR2/7z0NUXvPUA2gCFAEShAYPLAdDOzblsPj0aNHXWvWrHnCmHkFprII8DoiX19feXx8/HWhUFgTZ4n9BydMjWD/pYMiQBF4hgBuhrtiGeYTPRvFxcU3hEKhf4lVYJTKRFMRAboFktDQUM9Fixb9QyaYnJIOCxZtovKnCFAEeAig17w0dBwoFNzm0QW9evVyOXToUL6xgoamIAIuSHj//v2PvL29w8ic//3lFrif+JgqAUWAIqCDQFO/2jBz2hDurxkZGcHOzs4/GCtoaCoiENeqVcv63r178QzDuODssNnIhKmrqAJQBCgCehCwlkvh6xVcA28sRkpgGKaesdwDUxABphNLli5dWmPevHm3yZzv3nsM//nvFqoEFAGKgB4E8MEM/fR9qOXlxn6q1WoLGIZxBACjVCUamwg4t+DatWuDmzRp8iOZ89KvfoH4O7Q1OX0KKAJlIfBW87ow7aO3uY+Tk5N7eXp6HjHG6oEpiAC7EVvl5+cflslkgdQtoIpPESgfAna2cogI4/LuQKVSHZdIJFiZZPAmp8YmAnQLxAMHDnSKiop6RKafk5sPIbPXlQ8NehRFwEIRYBgGvokIAbGY2y7tqUAgQF9BZejVA2MTgQjjAxEREb4hISHXiDyPHr/K7plHB0WAIvByBMaN7g0d2vmRg9RdunRxjImJwWVEg7b2NiYRsElEACC7fPnyYH9//81kNvM+3wApqVlUBygCFIFXIODr4w6fzcMCxGfj3r17vXx9fY8aehnRmETA1hYAgPzp06c/2tra9qfxAar3FIGKIWBjLWNrD8goKiraLZVKhxo6TmBMImDjA+7u7raPHj1KZBhGhpPBTUumzMR9HOigCFAEXoUAbqe+/usZ3GFarTaTYRgPQ8cJjE0E0mnTpnmsXr36DplJ/D8PYWnYL6+aP/2cIkARKEEgdMEo8K6lYP9Xkk/gVJJPYLA4gbGIgOQPyFauXFl3xowZV4hUt+86AQcO0Y1LqJZTBMqLwKABbeHtfu3I4RqBQGAPAKRZiUGKkIxJBBgfsDpw4EBQ796995FZzPl0PaSlYxs2OigCFIHyIODj7Q6L5j8PGO7evbvh22+/jf0+DZZPYCwi4AKFiYmJs7y8vBbihLHcOHgybUJSHuHTYygCBAHdxKLU1NTJCoXiu6pCBJhRaJ2dnb3Vzs6uF06qsFAFk6avphKmCFAEKoCAlUwC61ZN476Rn5+/XS6Xjy6JE5i1a8CuGACAjUqluioSidjN4JXKApg6a20FIKCHUgQoArorB8XFxY+FQqGPIVcOjOUasBuYuLq62qWmpiYTUWZnK2HG3G+oZCkCFIEKIrDxm1ncN7RarbKknN9glYjGIgIMFEoHDRrk+ttvv90jM7hzNxmWLN9aQQjo4RQBisDiz0aDVw1XFgitVptfQgSFhko1NiYRyGbMmOG1cuXKm0SM5y/+DZHf7aVSpQhQBCqIwLRJA+GtFtiXhB2FAoEAcwnMmghIDoHVggULvJcsWcIVG+3afQr27D9bQQjo4RQBisA7/+oMvXsEECCKSojAYLkExrAISLGR1dKlS+vNmzfvIrn7bTuPQ/Rh7r9UuhQBikA5EejTsyUMH9KRuAYahmGwsykSAWYXvvHKgTGJQL569eoG06ZNO0fmujryd7gSyzUxLicE9DCKAEUg0L8eTJk4kE8E2LaMlCObLRGwXYnCw8MbzZw5k9u9ZMnyn+HO3SQqVYoARaCCCOghAowRIBEYJLvQWBYBEoE8PDy8ISWCCkqcHk4R0IMAnwjQFRAIBOgamDURcOnFYWFhjWbPnn2azItaBFTHKQKvh4AOEUBJ4RElgteDk36LIlA1EdBjEWCMIM+cXQNqEVRNXaN3bcYI6IkROFdZIlj77R64eDnejOGmt0YRME8EqmKwkLMIQkND6y5atIjrQkLzCMxTyehdmT8C/fu0gX+93Z6/fFh1Vg1mzpzpHR4efpXA/Pue0xC1j1tNNH/06R1SBMwEAT2ZhVh4YNbBQpJZKA8ODvb67rvvuBRjdAvQPaCDIkARqBgCM6YMhuZNfcmXsNYAiQAzC806j4BtU9a5c2e3Y8eOcRufJiSmQOiXP1UMAXo0RYAiAEsWjQFPD4wPctWH2M3U7DMLWSKwsrKyy8vLe0Dk+PRpHkz/JJKKlSJAEagAAgKBAL6PnMl9Q6vV5pa0NDfrWgO8YZYIAMA2Ly/vmJWVVX38I+1QVAHp00MpAiUIiMUi+HbNdA4PjUbzj0gkam7ITsbGSDEmRIAbmtikpaV94+zszO7tXFSkgokhtGch1XCKQEUQkFtJYe3KqdxXcnNzt9ra2k4w934EhAikSAQ3b96c0qhRo8/wj8XFWgievKIiGNBjKQIWj4CdnRwilj/fHv3evXsTfX19fzTkJifGsgiwZ6EEiWD9+vUtx48fz+1rsPDfm+FRcprFC5cCQBEoLwL16njCgjkjuMOXLl3aYMGCBYklRFBc3vO87DhjEgHbxXj27Nn1wsLCuMKjnb+fhH0HuRYFhpgDPQdFoFojgA1JsDFJyVALBAJcMVBWhS7GmF3I7mswYMAAj927d18ns0hITIXQL9GqoYMiQBEoDwJLQseAp3uppUPPkjoDlSG6E+E9GMsiIGnGVjKZzEGpVMYxDIOrCHQ35PJInh5DEShBQHfFoLi4OF0oFGJmkcGyCo1JBFzfQlxCTElJWe3m5jYEL6jWaGDClFVU0BQBikA5ELC1sYLVX03mjszJydlhZ2c3zpD9Co1NBOwmJ0gEe/bs6dm/f//NZDaf/+cHePDoSTlgoIdQBCwbgYb1vGDurOEcCKdPn+7fvn37YyVLhxgofON+hcYkAjw3WTmwnjZtmu/q1au5COHpszdg/aaDli1hOnuKQDkQ+GjCAGgVwObj4cYm6pKMwtySQCF2MDbIMFaMAG+OBAzlzZs3d7169Wpcyd9AmVcIU2d+bZAJ0JNQBKorAkIhA9+sng4iIT5KLBE8ZRjGm9eQxCBLh8a2CEjAEDMM7bKysrbb29u3xYtqNMUwYeoqnFh1lSGdF0XgjRGwt7OGVcsncedRKpWHbGxshhk6UGhsIiA7HrFxgl27dvUaPHjwJjKrFV/vgmvXuW0R3xg0egKKQHVDoEO7JjBudC9uWkeOHOnZvXt3zMkx2A5H5OTGdA3wGlyc4J133qm1bdu2S+TCj5LSYOFiLn5Y3WRI50MReCMEBAKAL0ODwV2BXctZt6CAYZiaJYlEBtsF2VREwMUJZDKZfXZ29mmJROKBF1erNax7QAdFgCLwIgK6y4YqlSpeIpG0NkZ8wNiuATk/liRjnMD26NGjQ7t06RJBph2+eidcv5lA9YAiQBHQQaBNy8YwMbgP99fY2NhxLVq02GnIrkT8SxrbNSBxArYAqU+fPjX2799/mdyAMq8Aps5cS5WAIkAR4CHAMAxEhE0CG2s2GRfdgjyGYXwAAJcNiVtg0Ei7sYkA51HKPcjIyIgmjUqKtVr4cOoqdhWBDooAReAZAq4u9rD8i/EcHPn5+eflcnlvXn2BwR8YUxABXgMLkHD1wG7NmjUBU6dOjSKzjDkRC5u3HqY6QBGgCJQgMO6DXtChbROCh3bjxo1B48aNwybABmtWqgu2KYgAr4lxAnQPrOvVq+cSHx+P1YhslkRxcTEET15JlYAiQBHAB0QugzXhUwBXDXBoNJo0kUjUSGe1wKBuAV7HVERA3AN0euyvX78e4ufnx3Vj/Pa7fXDm4i2qCBQBi0egexd/GPlOVw6HhISEJT4+Pl8Za7WAXMhURECqEdn2Ze3atXM/derUFXITasw0nEKtAot/CiwcAJlUAmtWTOFSiouLi5UKhaJeWlraU15/QoNbA6a0CPBaaBUgEcgxVpCWlvats7NzdyL7L8N+gdv/PLRwVaDTt2QEgto2geAPnmcSpqamblIoFLNKrAGDJxHxsTaVRUBIB4OGbE5Bz5493aOjoy+Sm6H1B5b8CNC561oDmEkYFBTU8PTp0xnGDBKa2jUg1+NSjkusgvXOzs6cQ7T5x0MQc4rbIY1qB0XAYhDo17MVDB3SgZtvVlbWPkdHxw90rAGjuAWmdg34VgEGDW3atGmjOHPmDFd/gMWI46esZFcS6KAIWAoC9vbWsGLpRGCYZwZ6cXFxbmBgYJMrV65kGqPSUB+upnQNCBGUihXcv39/ibe397vk5i5cugXr1nPdzy1FF+g8LRiBkI/eBv/mdTkEEhISwn18fJYZe8mwsmIEfHeEixW4u7s7JCcnc12O8aDpcyLhaU6eBasGnbqlIFDX1xM+/eT5ngVqtfqJj4/PW48ePcKVArLJqdFNZFNbBHyrABOM2BWEn376qcvIkSM3EOHn5uazm6Xizkh0UASqKwJSiRhW/Hci4JZmZBw4cGBY3759sSchf98Coz8IlUEEhAxIVaKNVCrFDkYHZTIZFlawg6YeV1f1p/MiCIwe2QO6dGjGAaJUKs/Z2NgMKiEBo6UTm0OMgH8PuIKALgK7a3L37t09//jjD+y+wpITUuCnizZCcgquntBBEaheCDSsXxM++fgdfipx1uDBg9vu2bMnhZdFaLDmpK9Cr7IsAmIVkJbn1ugi7Nu3b2Dfvn3DyU0XFqogZM46KCpSv2oe9HOKQJVBwMnRFr4MHQtSKb4Hn42TJ09O7NChw2+8ACGSgNFdAnL9yiQCvAdSg8BuoS6RSGzT0tK22dra4t7v7EhOyYTP/r0JNHRJscooOr3RshEQi4XwxedjwM31WQsyHJmZmdE1atQIzs/Pz+ElDxk9QMi/y8omArw+kgEGDlkXwc3NzeHx48fnBQIB/o0dV67dhdVrkSzpMBQCErEQ/Br5QN06nmBjI4Pa3mwHObiXkAwZGblwPzEF/o5/AAWFuL0eHYZCQHepsKioKDEgIKDr/xfioQ+MqwQIuME2LinvfVc2EeB9koIkbhXhvffeq/XTTz8dEggEGFBkR9S+s/D7nlPlnRc9Tg8CWNmGnXEdHW1ALpcBIxCAgNS76hyPrebxJyc3HzIyc+DPk9fgzzM32F6TdLweAoP6tYW3B7TjvoxFRVOnTu0UGRmJW5zjKgHWE5jUJSA3Yw5EgPdC9kBgqxPRMli3bl2rjz766AcueKgF+H7zATh59ubrScFCv9W2dWPo2zMQ3FwdAc3Ssh78V8GDpKBSqdng7f6D5+H8pfhXfYV+zkNgYJ/WMGhgEBccxAc+Kipq9KBBg47yVgmQBEzqEpgbERAyQKsA4wUYPLQ9d+7c2FatWn1CbhaVcePmg/AnJYOXPmRSiQhGvtMNWjSvAzbWstd++Mu6CLEULl6Oh52//wn5+fgio6MsBNq2bgTjP+jDpRDjcVevXl3o7++P+3ygJUBcAgwOmixAyL9fc7EI8J504wXWEonE7tq1a7Pr168/phQZ/BDNmql0lEYAW2BPDO4H9erUAImE86pegCkvL+/OtWvXok6ePBmblJSUHRcXl6vVatk3kUgkEvr6+trUqlXLoVOnToENGjToZWtrW68srHFl56/rd2HLL0ch+ynNBtXFqVNQUxj9XnfAhqRkPHjwYEODBg0W5+fnYzNSJAGjNCStyPNhTkRAyAA1mOQXsCsJiYmJKxQKRQ8+GaDiHYm5WpG5VttjWQIY1xca1PcCkQhXZF8cWVlZl6Ojozfqwmz1AAAM5klEQVTs2rUrbt++fRkqlUpdVFRETFH+Wwg1lu0+LRaLRfgzZMgQ1wEDBvj17t17rJ2dnZ++86PbcCv+AXzz3T7Iyy+stlhXZGID+7aBQQPalbLIHjx4sKl+/fr/LigoQBJA5qy0uIC5WgTkvnSDhzbW1tY2t2/fDvfw8ChFBkdjrsLW7ccAuyFb4kAXYOqkt6FhGQRQXFxceOXKla+///77w5s3b05SKpWodBiVxsQMJAE+ESCIxCpDMiBxGyRm9kcul0s+/PDDWmPGjOnVtGnTYIZhni+ElwgALYTYa3dh89Y/IC/PMgkBNy8dM7IHtG/rV4oEEhMTN6ElUEICaAkgQJUWFzB3IsD7I0pIVhKsra2tbS9fvoxuwvucZQAA8bcfwoo1v1pc0hG6AP7N6wDmq+sOjUaTfeDAgcVfffXVmTNnzmQVFRURAkASwB99JMAnYs4qICRQYqWhPMRisVjSsWNHp/nz53fu3LnzLKFQiDGdUiO/oAjOno+DHyysQ7WVlQRmzxgGvt7upfAoIYH/6FgCSMiVEhzUlZe5uQb8+9NHBjZnz56d4ufn96GAF/5OT38K4Wt2QvJjLN+u3mNQ/7bQo2sAyOXPC1XIjNVqdfbhw4f/PWfOnD+vX7+OySn4xuGTABIAUT4SmNINUKFO8H/Q18AfYhkgGbA/EolE6u/vbzdv3rx2/fr1my8Wi59nyZTc1NOneRB95CLsj75QvQUDAPXreMKkCQPA0QEXvp6PK1euLO7Spcvm7OxsvjtgNiSAd2rORID3R5SQWAZyiURi/fPPP3cdPHhwuEAg4F6HuL6NuQb7o89Vy6rF9m2bwJCBbcHRwY6/BMVqG7a1io6OXjB37tzjf/31FxIAPvz4g0SACkdcAXz78JNVXuZTEd3guwukPoS0p0c2Yq2EoKAgx8WLF/fo1KnTTIZhSj0JuMqQlpYNu3afgrMXqme36qGDO0DPrgHsEi0ZxcXFeX/88cesQYMGRfPcAZSLWZFAVSACooSkxRkuLWIGonz58uVNZs6cuUEoFNpzroJWC4kPnsC69Xsg9UlWtXgDNapfE957txvU8HDWuwx4/vz50AULFuw/cuQIZqYRAiBWAHEBSJIKefArElQpixBIUJclAmxMixZCx44dHf/73/8O8ff3n8LPDkVhYFl5QmIK/Lj1MNxLxNqaqj+8arrCh+P6Qg0Pl1IEXVhY+PDrr78e/9lnn8Xl5+djUBCrCUlg0OSZg69C2twtAnL/xDIgOyYhIch79uzptmXLlmUuLi7Pm73ha7BIDSdPXYNtvx6vsplwNT2d4b13ukGDejVLrT8TQO7evbtx3rx563fv3p1aWFhIlOxlMYCKPPxl6Q3fZUDXjS8X4jIgIchGjRpVY+7cuaP4MR1yUmxUeys+EX7YeqTKEjbGZkYM6wzt2viVsgJwjk+ePNk7adKkRbt27XpcQgCkpJgQ86ueS5N/XlWIAIEhkWwkA5J4JHd0dLTeu3fv0LZt287XfQNlZeXC3oPn4diJq1XGXcD+dRhxbtakdqm1Z6IZSUlJUREREWsiIiISCgsLyRo03wWoiPn/ugpXVhyBEDUrHySETz75pG5ISEiIq6trF92LqVQauHbjHnz/YzQolfismP8QCRno3bMVdOvcAlBW/AcIU4bPnTsX2qdPn99K4gE4KSIbIheznGRVIgLiypAgIml3ZiWVSq3mz5/fcPr06QsdHBxa8pFG//RJWjYcOnIJjp2INVtCcHCwhtEjukOzJr6Ay0+6IycnJ3b79u1L5s+ff/XJkydk6QmVjL8KwA8AmkrhdAOLfJcBYwgyR0dHq5UrV7YaMmTIx7a2ti/kIWCZ+aUr8bBl+zGzJYRnBNASunZsAQ4ONi/EaTIzM4+Hh4d/vmLFinslrgCRDT84ayqZVPg6VY0I+GRAItmssmHswNHRUb5t27be3bp1+1QoFJaKYCMhZGblwvmLt2Bf9AXAdmjmMGp5ucKQgUHQpLGPXgIoKCi4Hx0dvWTy5Ml/JiUl8X1Nfj5AZRCALnyEEPiWG7EQUEZSb29vm4iIiA69e/eeJ5VKn5U78gYmJV27cR9+23MKHj5KMwfxgJOTLfTpHgiBAQ3A3s76BQJQqVQpMTExi0aNGnU4NTUV5UOsNH6A1hBumVHxqIpEQADh+6hoihJCkAUFBTmtW7dupJ+fHya9YF/EUgOTXm7/8wjOnLsJFy7fZotpTDmwbTUWA3UOagq+tT30ugBqtTrr+PHjoe+///6h5ORkzEfHNwz/LaObDGTKKbzsWnxCIGRN5MMSgp+fn/2qVau6denSZYFQKLTVPRnGEP6+/RCOnoiFS5dNX9wkk4pZ+bQMqA91fD1BIn4xXVuj0eTeuHEjYv78+Tv379+fXhILIMu1xAowixyB8ihGVSYCXeuAxA5YZZNIJFb9+/d3W7hw4dvNmjWbqC/pBa2EgoIiuJeQAjfjEuDshThIz8DVN+MMrAHo2L4JNPWrDXZ2cr2rACqVKj0mJuY/48eP/yMxMZFPACTirGtqmuPbRl9Qkb/kyMooICDAITw8vFf79u1ni0SiFwgBVxmysnLg+s0EOHriKiQkphpHMACgUDhCq4AG0LhBLajt487Wauir1NRoNDm3bt1a/9VXX+3Ytm3b44KCAowDkGBtlbIC+GBWdSIgZECWGfn+KfcW6tmzp/Pnn3/eKzAwcJJUKnV7mTalZzyFpOR0dhkSc+cTH6S+dmt1fJO0aF4XAv3rsm9+Zye7Mi+NhUBnzpz5unv37gd5b3/+GwaVDB968pYxRwIoy13gLwOXImwM/Hp7e1uvX7++R4cOHabKZLKaZYGUkpoF9+4nw4XL8XAjLgHQsnudgSRcy8sN/Bp5s8t+XjVdwMG+dBKQ7nkLCgoSLl269M2cOXOiz5w5g5lrxEIjeQG6iVqvc2uV9p3qQAQEPH7ii24WHJv44ubmZrVixYpWXbt2HaJQKLoyDMN1QXqZBDCijc05cnLyQJlXyBbV4IpEQWHp8lvsQefibM9mlilcHcDFhUtxKOv02oyMjJNHjx7dOGzYMOy6QpKASD4ACQTqrgRUmsK85oX1ZSoSQiCELba2trbasGFDux49eox2cnJq86prpaRmApJDVnYu+6/uDlnYfMXOVg5YlIWpvzY2cnB2si3VPvxl19BqtapHjx7tPnHiRFRISMiF9PR0sgrAz9bkuwFVgZz1Trk6EYEuIfBTY0nSC1nrFmNF3cSJE1s1b968p6ura0eGYV7M2X2VJr7m5yqV6kl8fPxP27dvj168ePFdHQIgQcBqoWA6EJVFCHxSYGX05ZdfNhg4cGCvBg0avCsSico2pV5TBmV9DbMBU1NTj8fGxu5ftmzZ2ZiYGMxM4xOzrgVgdslBrwNJdSQCggO/cIa/5IhKV+qnYcOGuPzY3N/fv0WNGjVaOzg4NDc0MWCmWUJCwv4LFy6cHjVq1LmSZT9+JiA++NXFAniVLpZVy0DkwhE2FjSsX78+sE2bNp1q167dWywWv9S1e9WFdT/XaDR52dnZsYmJiadiY2OvLly48K+HDx/im58kZ/H/1ZepWWWtgOoWI3iV7AkhkGUtfr48V2LLK6oROjg4iGfNmlW7adOmtXx9fes6OTn5WFtbe1pZWXlIpVLPV10QA0o5OTlx6enptxISEq4dO3bs5hdffIFvfvKw85XrZbUAr7pUVf+8rKAi37Uj5MD+be7cud49evRoXqdOnaYODg71bGxs6opEolf6YAUFBY8KCgqScnNzH6SnpyckJSUlnj59On7VqlWJubm5/EAskRGRi746jUrrJGQsgVdni0Bf4EofKfBdCPI7/19CINx3AwMDrVq3bs0qn1arFQQEBLhevnw5lWEY7blz57LOnz+P68loMpI3CFEq/to/vycACQJWi7fLayirLiHwl4YJKSAhkN+JfFjZ1K1bV9KrVy9nlEVgYKDbpUuX2EIGlMevv/6anpSUhA86wZjEW/hvd/7vur0a+PGZaisfSyMC1A9+EQ0JMOK/qFx8q0H3d/6x/HMQvecX9PBJQFfhyGf6qgCrraKVgxx0MSX4E9noI2kiMyJXvj7z5aFLAuTh5suC/zciG90irWorH0siAn0uka7y6T7sfAuC/9biEwr/vLo1/vykH36uOd+0rLbKVY6Hv6xDdMman6TEX4rky0SfLuuSAd/y4j/sug8+a+yV3JxFyMdSiaCsOAkfj7IefN1j9BEBUSTd1F++UlmEgr0BGZCv6iNrfbLR1WV9WOsjBl2Ljk8CBrj9qnEKSgQvykkfJq+LE33wDfscvIyEy3slfQRs8aT8ugpeXtCr23HlxcviFcuEgqcyMQDY5QXRAJeip6AIUATMFQFKBOYqGXpfFAETIkCJwIRg00tRBMwVgf8D4UhNgAiU2XwAAAAASUVORK5CYII=;" vertex="1" parent="1">
          <mxGeometry x="440" y="207" width="258" height="143" as="geometry" />
        </mxCell>
        <mxCell id="IQgT02N7gyP_bAqmJs0r-2" value="Fishers" style="rounded=0;whiteSpace=wrap;html=1;fillColor=none;strokeColor=none;fontStyle=1;fontSize=19;" vertex="1" parent="1">
          <mxGeometry x="500" y="248.5" width="50" height="60" as="geometry" />
        </mxCell>
        <mxCell id="IQgT02N7gyP_bAqmJs0r-3" value="Cod" style="rounded=0;whiteSpace=wrap;html=1;fillColor=none;strokeColor=none;fontStyle=1;fontSize=19;" vertex="1" parent="1">
          <mxGeometry x="595" y="248.5" width="50" height="60" as="geometry" />
        </mxCell>
        <mxCell id="IQgT02N7gyP_bAqmJs0r-4" value="" style="shape=image;verticalLabelPosition=bottom;verticalAlign=top;imageAspect=0;aspect=fixed;image=data:image/png,iVBORw0KGgoAAAANSUhEUgAAAQIAAACPCAYAAAARFtXiAAAAAXNSR0IArs4c6QAAIABJREFUeF7tXQdYFNf2PztbWXpdQBHELjYCduy9Rn1qYjRGRaOxoLHEEhN5vhh9ElQ0Sl6MUZNojBoT7BgLGnsnFgwaFVQQpApL2132/z8jdxzWRUF3l4W99/v4RHZ2Zu7vnPnNOeeec64A6KAIUAQsHgGBxSNAAaAIUASAEgFVAooARYASAdUBigBFACgRUCWgCFAEKBEYQgeIe6U1xMnoOd4IASqL14SPxgj0A8fHhfwuCA0NFU6YMEFha2trpdVqHclXpVKporCwMEUsFmuVSmVWXl7eE29v7+ySzwlBUKJ4TSXlfY2TRcnfBBcvXrTx8vJykclkLvg3mUzmXlBQ8Bh/R3kUFRU9USqV6pEjRybHxMQU68gE/0vlAtQiIDrGVzDB/fv33ZydnRuKRCJvoVDYimGYxgzD1BYIBLUqoMuPtVrtKY1Gc7qgoOBqbGzshaCgIGWJ4lHlKz+QKBv258qVK7a1a9d+y9raurVAIGgnFAqbAUC5ZaLVau8XFxff1mq1cVqt9pparY7Lysr629PTM4NHCBYpG0u2CDgFu3Pnjqenp2dLkUjUTSQS9RYIBL7l19NyH6nWaDTHNRrNd/n5+ecdHBzuU1LQi10pUk5JSfGxs7MLEovF7wuFwm7lRrsCB2q1WiSH3SqVKiYpKemCr6/vE0uTjaURAfvwr169Wjxs2LC6jo6OXcVi8QcMwwRUQG9Ay74zynpxCEBQDlQ1Gs1RjUbzvzt37hzesWPH09DQUI2Fm6msbD788EPh9OnTnX19fVE204RCYZtXycYQ8uBfQ6vVnissLPyuqKjo+LZt2+5PnDgRZUPcilfdTpX8vBwqWyXnpXvTgs6dOwvXrl3r4uvr21MqlYYIBIKXPvxarRaKi7WQX1AEWVm57E9Obh48zcmD7KdKyMpSsp/xh1QqBlcXe/BQOIGToy14uDuBja0VMAIkhzKhVhcXF39fWFi46ccff7w4ceJEtQURAvf2X7FihXTMmDGBdnZ2HwmFwhFlaR0rF60WnmYrITUtG548yYLklAx4nJIFxcWln1VruRTs7OTg4mwP1nIZWFvLwMnBFhwdbUAiEQPDvFQu7C1otdrjKpXqmzt37hwKDQ3N3rFjB5JCtRvVnQgYfMOEhobWdXZ2Hi2RSD4GAKk+KaJyFRWq4FFyOjx8+ATu3E2CW/EPIC396RsJ3UPhCP7N64JfYx+o7eMOMqm4TFLQarUnioqKln377bdHQ0JCkGWqq79K9I7ZsGGDfPjw4b3kcvl8hmHe0gc2Pvz5+UXwz70kuH7jHlyO/eeN5eLibAdNGvlAnToeULOGK3i6O4FYLHoZYSvVavXytLS0H/78888Hw4cPr1aEUF2JgCMAFxeX6WKxeDwACHWVDN/4mVk5cPvOI7h4KR6uXr8LGo3xLEChkIGWAQ2gfZvGUL9eTRCLhHoVT6vVpqpUqskXLlw4VBJgNN5NvRHNVfjLrPnfuXNn5tNPP7Vu167dv6ysrMIFAoGD7pnQ3C8qUkHc34lw7uLfcPZ8XIUvVpEvoCxaNKsDAf71oEF9L7CzlbMWg76h0Wi+zcvLWxEcHHynulgI1Y0IWBcgMjKyZr169eYKhcIJugSAb5ecnDy4eSsRjhy/Cnf+SaqIvhjsWJFICH26B0Kb1o3A3d2JdR/0jDyVSjX17t27Oxs2bIgrDlWVEDgCWLZsmXOzZs1GymSyz/QRAJr3SckZcPb8TdgXfcFgeFf0RE0a+0CnoKbQqGEtkFtJ9RG2Sq1Wh2dlZa1Zu3bt49DQ0KoqGxaa6kIEOA9m7dq1VmPHjh1vZWX1JQBY8YWPb//kx+kQ8+dfcOxErFHf/BVVuqaNvKF/3zZQt44nMAyjlxAKCgqmxsbG/tqmTZvcKkQILAEMGzZMMHnyZNvAwMDhNjY2EbjcrztJtVoDf8c/hKi9p+H23cohZ33Ai0QM9OgaAB3aNQF3haM+QkCynhYXF/dL8+bN86qqO1cdiIAJCAgQ7tu37y03N7etukt/SAAPHz2BX6NOwl/X71X0GTXp8Y4ONhD8QS+oX7cm66++aC5r01Qq1fioqKhDw4cPLzRjQuBiAMeOHbNt2bLlIGtr65UA8IILoFKp4a/rd2Hr9mOQkYkcZ76jbatG0L9PG/Bwf5EQtFrtFaVS+f64ceNuVUV3oSoTAWsF/PDDD7Jhw4Z9IpVKFwoEAu51ii5ASmoW/Lz9KPx1A5fsq86wkolh7Oje0KJpHRCLXwht4ETSlErlqB07dhwfO3YsEoK5BBU5AoiKipJ36tSpp52d3VqBQKDQRR9XXC5duQ2/7IyBXGVB1REOALRp1RAG928Prq72uhYCuguf/vTTT2vMTC6vxLeqEgHet/DatWvejRs3/p1hmCb8meYq82HfwfNw8I+LrwTAnA+QSUUQPKYvNG9SuywL4W+lUjlp48aNZ0JCQlSVaCFwyVlhYWGy4ODgjg4ODt/oy8QsKlLD1b/+gQ2bD0KRCldKq+4Y2K8N9O4eCFZWpReitFrtyaSkpBE1a9ZEH6dKxA6qIhEwjRs3Fh09ejTIzc1tj0AgkBNVQivg79sPYc03UZCXhy/K6jGkUhFMnzyYdRlw5UGPy3A6MzNz9pEjRy4NHz4cny5TKR9HAB9//LFkzpw5LRUKxTqGYfx07xEJ4PrNe/D9j4dAWcUsgJdpEa4ufDRhADSoV6OUdaDVajMzMzP7Tpo06UJVcBWqEhGwrkDnzp3FUVFRwXZ2dqvx/0RI+fmFsHnrYTh34Vb1ePr1zAKVbtqkt8G3trveoKJGo9mTnp7+WWRkZFxoaKgxCaEUAcyaNauFQqFYLhKJgnRvW6XWQPzthxC5fi8o86qWC1ARReraqQUMHdwBrGQS/tfUhYWFU3v37r0hJibGrDNHqwoRsCTQtm1bSUxMzPcSieRdPtqPH2fA0vBf2Kw/Sxg1PV1g7Ps9wccbCeFFEWo0mr3p6emfRkZG3iohBIwhGCKOoEsAzRUKxVcikai9Lu6Yj3H3fjJ8t+kApD4hhZjVWzoKNweYOW0ouLnal5qoWq0Oi4yM/Myck8SqAhGwJDBu3Dh5ZGTkzxKJpB/fFbh89TasW7+XTQe2tNG4vheMeLcreLo76yUEtVq9Lysra9HPP/98vSSG8LqEQAiACQsLk44YMaKpQqEIF4lE7XQxJ6s0G3+IhvsPUi1NJKzrhlZbsya+pWpONBrN9nXr1o02VzIwdyLgSOB///vfEZFI1JJPAtt2xsChI5ctTtl0J4zZikMHBbF1DvpqGrDk9v/7JMy4cePGxfDwcOWOHTv01eXrnpbohgCXZ5csWYJ5AJ0cHR2XMQxTXx8BPE7JYJcBb8QlWLxMhgxoB/36tClF0OZMBuZMBCwJDBs2zGrr1q0xIpGIKxLC7LPwiF/h5t+JFq9wfABavlUfhg3pCJhHX0aRU35BQcEXmZmZu6Kjo+/v379fxSMF/qnYNOB+/fpJhw4d6uXm5jZaLpfPAoBSDjB+AS2Ax6kZsGXbUTZbk47nCGAS0phRPXXJYOe6detGmZtlYK5EwJJAzZo1JXfu3NkslUqHEXiRBL6K2Alxfz+gOlcGAoFICIM7sFV3ZeXLA0BmUVHRhpycnJ15eXmYqKQqLCwUSKVSqY2Njau9vf07Uql0LADY6LsMEkBKaib8+PMRth6ADv0I+DXyhhlTBgOmlJOBlkH37t1HmlMA0RyJgPijEqVSGSaXy6c+JwEthK3aDrfiH1K9KwcCDerUgPfe7Qo1PF30LjuW4xQvHIKZgI+S0uH7zQfhQVLa65zC4r7TuFEtmDn1X6VkUFRUFDZq1Kj5JRZZpQe4zJEIcElQnJCQMLBWrVrb+ZbA8pU72DwBOiqGgI2NDN4b3pUtu8Wa/JdYCXpPjG9/TNK6duM+bPnlCFsSTEfFEGjf1g/Gvd+rFPa5ubnv2Nra7jRh3keZN21uRIAkIIyNjX2rWbNmp0meAJakbth4AE6dv1kx9OnRLyBQt7YH9OgWwOYi2NvbsG+pZ0ogeFaCptWy64xqlQaysnPhn3+SYH/0BXiYTN/+b6pOQW2bwLjRPbn4jVarLUpJSfH38PDA5BdTJYHpnYY5EQGbNhwaGuq0aNEifO2LyR0f/OMS/PJrzJvKgX5fDwJeNdzAt7YH1PDAUmiAB0kZkJD4GO4nplC8jIDAu0M7Q6/uz5tjabXax0eOHGnYo0cP7IBTaS6CuRABGxz09PSUPnjwII5hGK4zbfydJFgWvg1bRhlBLPSUFAHTIiBkGPhk1nCoX6cGd2GNRnO2devWHS9dulRpberMgQhIcFCcnp4+xcnJKZwghPUC0z+JBKxVp4MiUF0QsLG2guVfBJcqVsI8Dxsbm69LXASTv/XMgQjYuMDq1asV06ZNw3Uo7p4+nvsNZGVjYx46KALVC4FaXq4QuuB9frxAefz4cZ8uXbrgHgsmjxdUNhGwcQGFQiFNTk5OFggEtkTcv/x6Ag7+UXmtqqqX2tHZmCMCwwYFQd/erblbKy4uvoIb6gCAyQuUKpsIMMtClJiYONLLy2sDQSQtIxs++XQDjQuYo/bSezIYAriMG77sQ3Cwe56zlZubO9zW1nZXCRkY7FqvOlFlEgHrEgwePNhu165dpdamPpwWAZi4QgdFoLoj4OnhBEsWYQLns6HVatPGjRvntWnTJkzWMJmLUFlEwK4S4B4DSqVym1wuH0CA2HvwPPz6+5/VXf50fhQBDoGR73SD7l1acP9XqVQbJBLJRFMGDiuLCJAEROHh4YqZM2dyieqYwTZh6kqLLCmmz4XlIoC7MK0K+whEz7tP5a1bt04xZcoUbLBhEqugMoiADRCiNZCfn39MJpNxpcXLV+yAuHhawGK5j4TlzrxT+2Yw5v0eHAAajeaYSCTqaarAYWUQAWsNhIWF1Zg9e/ZdMnNsZDkpJKJkg1HLVQg6c8tEAHdaWrtyKr9JrWrTpk1uY8eOxYxDo1sFpiYCzhooLCw8LJFIuJ1u53/+PTxOzbRMLaCzpggAgH+zOhAyeRA/VrBdIpGMNIVVYGoiYCsLQ0NDFYsWLeLa2KA1MHEaboBDB0XAchHQYxXkDxw40GXPnj3Y9dWoVoEpiYCzBjIyMsIcHR0/IiIPW7UTbt6i7a0s9xGgMycItGnZCCYG9+UAKSwsXCGTyeYa2yowJRGwsYERI0Y4btmyBbMI2WurNcUwYQruhkUHRYAigBuurgmfwvUtwLwChmGwQsmY7elNtgkqlzdw/fr1Pn5+ftiMgR2/7z0NUXvPUA2gCFAEShAYPLAdDOzblsPj0aNHXWvWrHnCmHkFprII8DoiX19feXx8/HWhUFgTZ4n9BydMjWD/pYMiQBF4hgBuhrtiGeYTPRvFxcU3hEKhf4lVYJTKRFMRAboFktDQUM9Fixb9QyaYnJIOCxZtovKnCFAEeAig17w0dBwoFNzm0QW9evVyOXToUL6xgoamIAIuSHj//v2PvL29w8ic//3lFrif+JgqAUWAIqCDQFO/2jBz2hDurxkZGcHOzs4/GCtoaCoiENeqVcv63r178QzDuODssNnIhKmrqAJQBCgCehCwlkvh6xVcA28sRkpgGKaesdwDUxABphNLli5dWmPevHm3yZzv3nsM//nvFqoEFAGKgB4E8MEM/fR9qOXlxn6q1WoLGIZxBACjVCUamwg4t+DatWuDmzRp8iOZ89KvfoH4O7Q1OX0KKAJlIfBW87ow7aO3uY+Tk5N7eXp6HjHG6oEpiAC7EVvl5+cflslkgdQtoIpPESgfAna2cogI4/LuQKVSHZdIJFiZZPAmp8YmAnQLxAMHDnSKiop6RKafk5sPIbPXlQ8NehRFwEIRYBgGvokIAbGY2y7tqUAgQF9BZejVA2MTgQjjAxEREb4hISHXiDyPHr/K7plHB0WAIvByBMaN7g0d2vmRg9RdunRxjImJwWVEg7b2NiYRsElEACC7fPnyYH9//81kNvM+3wApqVlUBygCFIFXIODr4w6fzcMCxGfj3r17vXx9fY8aehnRmETA1hYAgPzp06c/2tra9qfxAar3FIGKIWBjLWNrD8goKiraLZVKhxo6TmBMImDjA+7u7raPHj1KZBhGhpPBTUumzMR9HOigCFAEXoUAbqe+/usZ3GFarTaTYRgPQ8cJjE0E0mnTpnmsXr36DplJ/D8PYWnYL6+aP/2cIkARKEEgdMEo8K6lYP9Xkk/gVJJPYLA4gbGIgOQPyFauXFl3xowZV4hUt+86AQcO0Y1LqJZTBMqLwKABbeHtfu3I4RqBQGAPAKRZiUGKkIxJBBgfsDpw4EBQ796995FZzPl0PaSlYxs2OigCFIHyIODj7Q6L5j8PGO7evbvh22+/jf0+DZZPYCwi4AKFiYmJs7y8vBbihLHcOHgybUJSHuHTYygCBAHdxKLU1NTJCoXiu6pCBJhRaJ2dnb3Vzs6uF06qsFAFk6avphKmCFAEKoCAlUwC61ZN476Rn5+/XS6Xjy6JE5i1a8CuGACAjUqluioSidjN4JXKApg6a20FIKCHUgQoArorB8XFxY+FQqGPIVcOjOUasBuYuLq62qWmpiYTUWZnK2HG3G+oZCkCFIEKIrDxm1ncN7RarbKknN9glYjGIgIMFEoHDRrk+ttvv90jM7hzNxmWLN9aQQjo4RQBisDiz0aDVw1XFgitVptfQgSFhko1NiYRyGbMmOG1cuXKm0SM5y/+DZHf7aVSpQhQBCqIwLRJA+GtFtiXhB2FAoEAcwnMmghIDoHVggULvJcsWcIVG+3afQr27D9bQQjo4RQBisA7/+oMvXsEECCKSojAYLkExrAISLGR1dKlS+vNmzfvIrn7bTuPQ/Rh7r9UuhQBikA5EejTsyUMH9KRuAYahmGwsykSAWYXvvHKgTGJQL569eoG06ZNO0fmujryd7gSyzUxLicE9DCKAEUg0L8eTJk4kE8E2LaMlCObLRGwXYnCw8MbzZw5k9u9ZMnyn+HO3SQqVYoARaCCCOghAowRIBEYJLvQWBYBEoE8PDy8ISWCCkqcHk4R0IMAnwjQFRAIBOgamDURcOnFYWFhjWbPnn2azItaBFTHKQKvh4AOEUBJ4RElgteDk36LIlA1EdBjEWCMIM+cXQNqEVRNXaN3bcYI6IkROFdZIlj77R64eDnejOGmt0YRME8EqmKwkLMIQkND6y5atIjrQkLzCMxTyehdmT8C/fu0gX+93Z6/fFh1Vg1mzpzpHR4efpXA/Pue0xC1j1tNNH/06R1SBMwEAT2ZhVh4YNbBQpJZKA8ODvb67rvvuBRjdAvQPaCDIkARqBgCM6YMhuZNfcmXsNYAiQAzC806j4BtU9a5c2e3Y8eOcRufJiSmQOiXP1UMAXo0RYAiAEsWjQFPD4wPctWH2M3U7DMLWSKwsrKyy8vLe0Dk+PRpHkz/JJKKlSJAEagAAgKBAL6PnMl9Q6vV5pa0NDfrWgO8YZYIAMA2Ly/vmJWVVX38I+1QVAHp00MpAiUIiMUi+HbNdA4PjUbzj0gkam7ITsbGSDEmRIAbmtikpaV94+zszO7tXFSkgokhtGch1XCKQEUQkFtJYe3KqdxXcnNzt9ra2k4w934EhAikSAQ3b96c0qhRo8/wj8XFWgievKIiGNBjKQIWj4CdnRwilj/fHv3evXsTfX19fzTkJifGsgiwZ6EEiWD9+vUtx48fz+1rsPDfm+FRcprFC5cCQBEoLwL16njCgjkjuMOXLl3aYMGCBYklRFBc3vO87DhjEgHbxXj27Nn1wsLCuMKjnb+fhH0HuRYFhpgDPQdFoFojgA1JsDFJyVALBAJcMVBWhS7GmF3I7mswYMAAj927d18ns0hITIXQL9GqoYMiQBEoDwJLQseAp3uppUPPkjoDlSG6E+E9GMsiIGnGVjKZzEGpVMYxDIOrCHQ35PJInh5DEShBQHfFoLi4OF0oFGJmkcGyCo1JBFzfQlxCTElJWe3m5jYEL6jWaGDClFVU0BQBikA5ELC1sYLVX03mjszJydlhZ2c3zpD9Co1NBOwmJ0gEe/bs6dm/f//NZDaf/+cHePDoSTlgoIdQBCwbgYb1vGDurOEcCKdPn+7fvn37YyVLhxgofON+hcYkAjw3WTmwnjZtmu/q1au5COHpszdg/aaDli1hOnuKQDkQ+GjCAGgVwObj4cYm6pKMwtySQCF2MDbIMFaMAG+OBAzlzZs3d7169Wpcyd9AmVcIU2d+bZAJ0JNQBKorAkIhA9+sng4iIT5KLBE8ZRjGm9eQxCBLh8a2CEjAEDMM7bKysrbb29u3xYtqNMUwYeoqnFh1lSGdF0XgjRGwt7OGVcsncedRKpWHbGxshhk6UGhsIiA7HrFxgl27dvUaPHjwJjKrFV/vgmvXuW0R3xg0egKKQHVDoEO7JjBudC9uWkeOHOnZvXt3zMkx2A5H5OTGdA3wGlyc4J133qm1bdu2S+TCj5LSYOFiLn5Y3WRI50MReCMEBAKAL0ODwV2BXctZt6CAYZiaJYlEBtsF2VREwMUJZDKZfXZ29mmJROKBF1erNax7QAdFgCLwIgK6y4YqlSpeIpG0NkZ8wNiuATk/liRjnMD26NGjQ7t06RJBph2+eidcv5lA9YAiQBHQQaBNy8YwMbgP99fY2NhxLVq02GnIrkT8SxrbNSBxArYAqU+fPjX2799/mdyAMq8Aps5cS5WAIkAR4CHAMAxEhE0CG2s2GRfdgjyGYXwAAJcNiVtg0Ei7sYkA51HKPcjIyIgmjUqKtVr4cOoqdhWBDooAReAZAq4u9rD8i/EcHPn5+eflcnlvXn2BwR8YUxABXgMLkHD1wG7NmjUBU6dOjSKzjDkRC5u3HqY6QBGgCJQgMO6DXtChbROCh3bjxo1B48aNwybABmtWqgu2KYgAr4lxAnQPrOvVq+cSHx+P1YhslkRxcTEET15JlYAiQBHAB0QugzXhUwBXDXBoNJo0kUjUSGe1wKBuAV7HVERA3AN0euyvX78e4ufnx3Vj/Pa7fXDm4i2qCBQBi0egexd/GPlOVw6HhISEJT4+Pl8Za7WAXMhURECqEdn2Ze3atXM/derUFXITasw0nEKtAot/CiwcAJlUAmtWTOFSiouLi5UKhaJeWlraU15/QoNbA6a0CPBaaBUgEcgxVpCWlvats7NzdyL7L8N+gdv/PLRwVaDTt2QEgto2geAPnmcSpqamblIoFLNKrAGDJxHxsTaVRUBIB4OGbE5Bz5493aOjoy+Sm6H1B5b8CNC561oDmEkYFBTU8PTp0xnGDBKa2jUg1+NSjkusgvXOzs6cQ7T5x0MQc4rbIY1qB0XAYhDo17MVDB3SgZtvVlbWPkdHxw90rAGjuAWmdg34VgEGDW3atGmjOHPmDFd/gMWI46esZFcS6KAIWAoC9vbWsGLpRGCYZwZ6cXFxbmBgYJMrV65kGqPSUB+upnQNCBGUihXcv39/ibe397vk5i5cugXr1nPdzy1FF+g8LRiBkI/eBv/mdTkEEhISwn18fJYZe8mwsmIEfHeEixW4u7s7JCcnc12O8aDpcyLhaU6eBasGnbqlIFDX1xM+/eT5ngVqtfqJj4/PW48ePcKVArLJqdFNZFNbBHyrABOM2BWEn376qcvIkSM3EOHn5uazm6Xizkh0UASqKwJSiRhW/Hci4JZmZBw4cGBY3759sSchf98Coz8IlUEEhAxIVaKNVCrFDkYHZTIZFlawg6YeV1f1p/MiCIwe2QO6dGjGAaJUKs/Z2NgMKiEBo6UTm0OMgH8PuIKALgK7a3L37t09//jjD+y+wpITUuCnizZCcgquntBBEaheCDSsXxM++fgdfipx1uDBg9vu2bMnhZdFaLDmpK9Cr7IsAmIVkJbn1ugi7Nu3b2Dfvn3DyU0XFqogZM46KCpSv2oe9HOKQJVBwMnRFr4MHQtSKb4Hn42TJ09O7NChw2+8ACGSgNFdAnL9yiQCvAdSg8BuoS6RSGzT0tK22dra4t7v7EhOyYTP/r0JNHRJscooOr3RshEQi4XwxedjwM31WQsyHJmZmdE1atQIzs/Pz+ElDxk9QMi/y8omArw+kgEGDlkXwc3NzeHx48fnBQIB/o0dV67dhdVrkSzpMBQCErEQ/Br5QN06nmBjI4Pa3mwHObiXkAwZGblwPzEF/o5/AAWFuL0eHYZCQHepsKioKDEgIKDr/xfioQ+MqwQIuME2LinvfVc2EeB9koIkbhXhvffeq/XTTz8dEggEGFBkR9S+s/D7nlPlnRc9Tg8CWNmGnXEdHW1ALpcBIxCAgNS76hyPrebxJyc3HzIyc+DPk9fgzzM32F6TdLweAoP6tYW3B7TjvoxFRVOnTu0UGRmJW5zjKgHWE5jUJSA3Yw5EgPdC9kBgqxPRMli3bl2rjz766AcueKgF+H7zATh59ubrScFCv9W2dWPo2zMQ3FwdAc3Ssh78V8GDpKBSqdng7f6D5+H8pfhXfYV+zkNgYJ/WMGhgEBccxAc+Kipq9KBBg47yVgmQBEzqEpgbERAyQKsA4wUYPLQ9d+7c2FatWn1CbhaVcePmg/AnJYOXPmRSiQhGvtMNWjSvAzbWstd++Mu6CLEULl6Oh52//wn5+fgio6MsBNq2bgTjP+jDpRDjcVevXl3o7++P+3ygJUBcAgwOmixAyL9fc7EI8J504wXWEonE7tq1a7Pr168/phQZ/BDNmql0lEYAW2BPDO4H9erUAImE86pegCkvL+/OtWvXok6ePBmblJSUHRcXl6vVatk3kUgkEvr6+trUqlXLoVOnToENGjToZWtrW68srHFl56/rd2HLL0ch+ynNBtXFqVNQUxj9XnfAhqRkPHjwYEODBg0W5+fnYzNSJAGjNCStyPNhTkRAyAA1mOQXsCsJiYmJKxQKRQ8+GaDiHYm5WpG5VttjWQIY1xca1PcCkQhXZF8cWVlZl6Ojozfqwmz1AAAM5klEQVTs2rUrbt++fRkqlUpdVFRETFH+Wwg1lu0+LRaLRfgzZMgQ1wEDBvj17t17rJ2dnZ++86PbcCv+AXzz3T7Iyy+stlhXZGID+7aBQQPalbLIHjx4sKl+/fr/LigoQBJA5qy0uIC5WgTkvnSDhzbW1tY2t2/fDvfw8ChFBkdjrsLW7ccAuyFb4kAXYOqkt6FhGQRQXFxceOXKla+///77w5s3b05SKpWodBiVxsQMJAE+ESCIxCpDMiBxGyRm9kcul0s+/PDDWmPGjOnVtGnTYIZhni+ElwgALYTYa3dh89Y/IC/PMgkBNy8dM7IHtG/rV4oEEhMTN6ElUEICaAkgQJUWFzB3IsD7I0pIVhKsra2tbS9fvoxuwvucZQAA8bcfwoo1v1pc0hG6AP7N6wDmq+sOjUaTfeDAgcVfffXVmTNnzmQVFRURAkASwB99JMAnYs4qICRQYqWhPMRisVjSsWNHp/nz53fu3LnzLKFQiDGdUiO/oAjOno+DHyysQ7WVlQRmzxgGvt7upfAoIYH/6FgCSMiVEhzUlZe5uQb8+9NHBjZnz56d4ufn96GAF/5OT38K4Wt2QvJjLN+u3mNQ/7bQo2sAyOXPC1XIjNVqdfbhw4f/PWfOnD+vX7+OySn4xuGTABIAUT4SmNINUKFO8H/Q18AfYhkgGbA/EolE6u/vbzdv3rx2/fr1my8Wi59nyZTc1NOneRB95CLsj75QvQUDAPXreMKkCQPA0QEXvp6PK1euLO7Spcvm7OxsvjtgNiSAd2rORID3R5SQWAZyiURi/fPPP3cdPHhwuEAg4F6HuL6NuQb7o89Vy6rF9m2bwJCBbcHRwY6/BMVqG7a1io6OXjB37tzjf/31FxIAPvz4g0SACkdcAXz78JNVXuZTEd3guwukPoS0p0c2Yq2EoKAgx8WLF/fo1KnTTIZhSj0JuMqQlpYNu3afgrMXqme36qGDO0DPrgHsEi0ZxcXFeX/88cesQYMGRfPcAZSLWZFAVSACooSkxRkuLWIGonz58uVNZs6cuUEoFNpzroJWC4kPnsC69Xsg9UlWtXgDNapfE957txvU8HDWuwx4/vz50AULFuw/cuQIZqYRAiBWAHEBSJIKefArElQpixBIUJclAmxMixZCx44dHf/73/8O8ff3n8LPDkVhYFl5QmIK/Lj1MNxLxNqaqj+8arrCh+P6Qg0Pl1IEXVhY+PDrr78e/9lnn8Xl5+djUBCrCUlg0OSZg69C2twtAnL/xDIgOyYhIch79uzptmXLlmUuLi7Pm73ha7BIDSdPXYNtvx6vsplwNT2d4b13ukGDejVLrT8TQO7evbtx3rx563fv3p1aWFhIlOxlMYCKPPxl6Q3fZUDXjS8X4jIgIchGjRpVY+7cuaP4MR1yUmxUeys+EX7YeqTKEjbGZkYM6wzt2viVsgJwjk+ePNk7adKkRbt27XpcQgCkpJgQ86ueS5N/XlWIAIEhkWwkA5J4JHd0dLTeu3fv0LZt287XfQNlZeXC3oPn4diJq1XGXcD+dRhxbtakdqm1Z6IZSUlJUREREWsiIiISCgsLyRo03wWoiPn/ugpXVhyBEDUrHySETz75pG5ISEiIq6trF92LqVQauHbjHnz/YzQolfismP8QCRno3bMVdOvcAlBW/AcIU4bPnTsX2qdPn99K4gE4KSIbIheznGRVIgLiypAgIml3ZiWVSq3mz5/fcPr06QsdHBxa8pFG//RJWjYcOnIJjp2INVtCcHCwhtEjukOzJr6Ay0+6IycnJ3b79u1L5s+ff/XJkydk6QmVjL8KwA8AmkrhdAOLfJcBYwgyR0dHq5UrV7YaMmTIx7a2ti/kIWCZ+aUr8bBl+zGzJYRnBNASunZsAQ4ONi/EaTIzM4+Hh4d/vmLFinslrgCRDT84ayqZVPg6VY0I+GRAItmssmHswNHRUb5t27be3bp1+1QoFJaKYCMhZGblwvmLt2Bf9AXAdmjmMGp5ucKQgUHQpLGPXgIoKCi4Hx0dvWTy5Ml/JiUl8X1Nfj5AZRCALnyEEPiWG7EQUEZSb29vm4iIiA69e/eeJ5VKn5U78gYmJV27cR9+23MKHj5KMwfxgJOTLfTpHgiBAQ3A3s76BQJQqVQpMTExi0aNGnU4NTUV5UOsNH6A1hBumVHxqIpEQADh+6hoihJCkAUFBTmtW7dupJ+fHya9YF/EUgOTXm7/8wjOnLsJFy7fZotpTDmwbTUWA3UOagq+tT30ugBqtTrr+PHjoe+///6h5ORkzEfHNwz/LaObDGTKKbzsWnxCIGRN5MMSgp+fn/2qVau6denSZYFQKLTVPRnGEP6+/RCOnoiFS5dNX9wkk4pZ+bQMqA91fD1BIn4xXVuj0eTeuHEjYv78+Tv379+fXhILIMu1xAowixyB8ihGVSYCXeuAxA5YZZNIJFb9+/d3W7hw4dvNmjWbqC/pBa2EgoIiuJeQAjfjEuDshThIz8DVN+MMrAHo2L4JNPWrDXZ2cr2rACqVKj0mJuY/48eP/yMxMZFPACTirGtqmuPbRl9Qkb/kyMooICDAITw8vFf79u1ni0SiFwgBVxmysnLg+s0EOHriKiQkphpHMACgUDhCq4AG0LhBLajt487Wauir1NRoNDm3bt1a/9VXX+3Ytm3b44KCAowDkGBtlbIC+GBWdSIgZECWGfn+KfcW6tmzp/Pnn3/eKzAwcJJUKnV7mTalZzyFpOR0dhkSc+cTH6S+dmt1fJO0aF4XAv3rsm9+Zye7Mi+NhUBnzpz5unv37gd5b3/+GwaVDB968pYxRwIoy13gLwOXImwM/Hp7e1uvX7++R4cOHabKZLKaZYGUkpoF9+4nw4XL8XAjLgHQsnudgSRcy8sN/Bp5s8t+XjVdwMG+dBKQ7nkLCgoSLl269M2cOXOiz5w5g5lrxEIjeQG6iVqvc2uV9p3qQAQEPH7ii24WHJv44ubmZrVixYpWXbt2HaJQKLoyDMN1QXqZBDCijc05cnLyQJlXyBbV4IpEQWHp8lvsQefibM9mlilcHcDFhUtxKOv02oyMjJNHjx7dOGzYMOy6QpKASD4ACQTqrgRUmsK85oX1ZSoSQiCELba2trbasGFDux49eox2cnJq86prpaRmApJDVnYu+6/uDlnYfMXOVg5YlIWpvzY2cnB2si3VPvxl19BqtapHjx7tPnHiRFRISMiF9PR0sgrAz9bkuwFVgZz1Trk6EYEuIfBTY0nSC1nrFmNF3cSJE1s1b968p6ura0eGYV7M2X2VJr7m5yqV6kl8fPxP27dvj168ePFdHQIgQcBqoWA6EJVFCHxSYGX05ZdfNhg4cGCvBg0avCsSico2pV5TBmV9DbMBU1NTj8fGxu5ftmzZ2ZiYGMxM4xOzrgVgdslBrwNJdSQCggO/cIa/5IhKV+qnYcOGuPzY3N/fv0WNGjVaOzg4NDc0MWCmWUJCwv4LFy6cHjVq1LmSZT9+JiA++NXFAniVLpZVy0DkwhE2FjSsX78+sE2bNp1q167dWywWv9S1e9WFdT/XaDR52dnZsYmJiadiY2OvLly48K+HDx/im58kZ/H/1ZepWWWtgOoWI3iV7AkhkGUtfr48V2LLK6oROjg4iGfNmlW7adOmtXx9fes6OTn5WFtbe1pZWXlIpVLPV10QA0o5OTlx6enptxISEq4dO3bs5hdffIFvfvKw85XrZbUAr7pUVf+8rKAi37Uj5MD+be7cud49evRoXqdOnaYODg71bGxs6opEolf6YAUFBY8KCgqScnNzH6SnpyckJSUlnj59On7VqlWJubm5/EAskRGRi746jUrrJGQsgVdni0Bf4EofKfBdCPI7/19CINx3AwMDrVq3bs0qn1arFQQEBLhevnw5lWEY7blz57LOnz+P68loMpI3CFEq/to/vycACQJWi7fLayirLiHwl4YJKSAhkN+JfFjZ1K1bV9KrVy9nlEVgYKDbpUuX2EIGlMevv/6anpSUhA86wZjEW/hvd/7vur0a+PGZaisfSyMC1A9+EQ0JMOK/qFx8q0H3d/6x/HMQvecX9PBJQFfhyGf6qgCrraKVgxx0MSX4E9noI2kiMyJXvj7z5aFLAuTh5suC/zciG90irWorH0siAn0uka7y6T7sfAuC/9biEwr/vLo1/vykH36uOd+0rLbKVY6Hv6xDdMman6TEX4rky0SfLuuSAd/y4j/sug8+a+yV3JxFyMdSiaCsOAkfj7IefN1j9BEBUSTd1F++UlmEgr0BGZCv6iNrfbLR1WV9WOsjBl2Ljk8CBrj9qnEKSgQvykkfJq+LE33wDfscvIyEy3slfQRs8aT8ugpeXtCr23HlxcviFcuEgqcyMQDY5QXRAJeip6AIUATMFQFKBOYqGXpfFAETIkCJwIRg00tRBMwVgf8D4UhNgAiU2XwAAAAASUVORK5CYII=;" vertex="1" parent="1">
          <mxGeometry x="440" y="477" width="258" height="143" as="geometry" />
        </mxCell>
        <mxCell id="IQgT02N7gyP_bAqmJs0r-5" value="Fishers" style="rounded=0;whiteSpace=wrap;html=1;fillColor=none;strokeColor=none;fontStyle=1;fontSize=19;" vertex="1" parent="1">
          <mxGeometry x="500" y="518.5" width="50" height="60" as="geometry" />
        </mxCell>
        <mxCell id="IQgT02N7gyP_bAqmJs0r-6" value="Cod" style="rounded=0;whiteSpace=wrap;html=1;fillColor=none;strokeColor=none;fontStyle=1;fontSize=19;" vertex="1" parent="1">
          <mxGeometry x="595" y="518.5" width="50" height="60" as="geometry" />
        </mxCell>
        <mxCell id="IQgT02N7gyP_bAqmJs0r-7" value="" style="shape=image;verticalLabelPosition=bottom;verticalAlign=top;imageAspect=0;image=data:image/png,iVBORw0KGgoAAAANSUhEUgAAAaAAAADGCAYAAACU7FSqAAAAAXNSR0IArs4c6QAAIABJREFUeF7tnQl0XEeZ76vq3tub9s2SLEvyvsWO7dhZnH1PyMIWCAlDgAwZhmGYYX28d8IwEGCGx/CYgXlAZmBYDi8DzDBvAoEAk5eEkDhxHMexY8vyKkuyZe1bt3q/91a9U22Vub7plrqllrpl//scnW71rfV3q+t/v6qvqijBCwRAAARAAAQKQIAWIE9kCQIgAAIgAAIEAoRGAAIgAAIgUBACEKCCYEemIAACIAACECC0ARAAARAAgYIQgAAVBDsyBQEQAAEQgAChDYAACIAACBSEAASoINiRKQiAAAiAAAQIbQAEQAAEQKAgBCBABcGOTEEABEAABCBAaAMgAAIgAAIFIQABKgh2ZAoCIAACIAABQhsAARAAARAoCAEIUEGwI1MQAAEQAAEIENoACIAACIBAQQhAgAqCHZmCAAiAAAhAgNAGQAAEQAAECkIAAlQQ7MgUBEAABEAAAoQ2AAIgAAIgUBACEKCCYEemIAACIAACECC0ARAAARAAgYIQgAAVBDsyBQEQAAEQgAChDYAACIAACBSEAASoINiRKQiAAAiAAAQIbQAEQAAEQKAgBCBABcGOTEEABEAABCBAaAMgAAIgAAIFIQABKgh2ZAoCIAACIAABQhsAARAAARAoCAEIUEGwI1MQAAEQAAEIENoACIAACIBAQQhAgAqCHZmCAAiAAAhAgNAGQAAEQAAECkIAAlQQ7MgUBEAABEAAAoQ2AAIgAAIgUBACEKCCYEemIAACIAACECC0ARAAARAAgYIQgAAVBDsyBQEQAAEQgAChDYAACIAACBSEAASoINiRKQiAAAiAAAQIbQAEQAAEQKAgBCBABcGOTEEABEAABCBAaAMgAAIgAAIFIQABKgh2ZAoCIAACIAABQhsAARAAARAoCAEIUEGwI1MQAAEQAAEIENoACIAACIBAQQhAgAqCHZmCAAiAAAhAgNAGQAAEQAAECkIAAlQQ7MgUBEAABEAAAoQ2AAIgAAIgUBACEKCCYEemIAACIAACECC0ARAAARAAgYIQgAAVBDsyBQEQAAEQgAChDYAACIAACBSEAASoINiRKQiAAAiAAAQIbQAEQAAEQKAgBCBABcGOTEEABEAABCBAaAMgAAIgAAIFIQABKgj2os10PtvDfOUl5on2fOUzT9VBNiAw9wTmqxOY+5ogh3wQyFd7yFc6+ahTtmnkQ0DykUa25UU4EFjwBBZiR7Hgoc9TBXK5t5nCZpPGVGGyie/EkWv4TChzEYKpwuZ6LZd8nWWfabx5akrIBgTmhkC+fvBzUzqkKgnkco+mC+u+rv6fiQA546SLn6swTVf2XFuDu1PPVkyyjTdduOmuz1Y8IVq5tgiELzoC+f7RF10FF2CBsr0nUwlApmvpvpffZRImhW8qgclFiKYLO1V+M7EY0nXSmb7LJBjTCYm67gw31XeyHunCqvplW+aZ8FiAPwcU+XwmkG1ndz4zKFTdsrUaprNaphMVp5Xjtnjc196QVmlpvR4OD9iTkFLXS0rqdK/Xo48mxk0SicgOk1ZXVxseT7keCFR4GGP68HB/hFIqDCNglJQEdOo1PHW1zR6ma80jQ32nE+FQWNOoXl7T5CstKa/w+8s3JWLR/q4T+/Yxr8dorF3q8fhLmnSPv1nXWVPCTI72dr7+2/KaBubzVtZ7vL5GjWmNRNeXHW5/6Rs+5tVrGhpLdE9JmYd5GzSPp4ZRff2h/b//mh7waTrX2KLFrWUewxPQNW/z0ROvvxiNBc0SPaDLOnm9JR5Z3sq6xeXdxw/1jI8PmL6qSs0nODtT5xp9bKw/Pjx8Kj7J4qzIlJWVaYwxHgwG+aS4uAXILTiZ/s8UL1sRTNeWYSkV6heOfKclAAGaFtGsAkzHN5N4pLME0olHpu/c6Sor5w3vra1rSsvKamva2l48GQgEtKqqlrKy6uqagL+ypq6+paq0tLLh0Os7njd8vkqPx1PRuuzicsJYHSGksb+nY++ixhZBKCsjgjYxqtURwpdzzquEIM8yRmxC2GJCSL0gfHF55SK/ZSZORcPBDsroEkJorc8bqDB8AQ+jrMRMxkejkdBpQXhDecUiL6XUSyjxUsI8lpWIxsLBIX9ZVYAxTYqFhxAi/7zj44N7mCB1JeVVXsY0nVFmEEIMQWggND7wIiGkRn4ur6jxEUIYJdQbnhh5kttc/rdk0iRpJYQKv6/EYyZj/8ey7TAjdJGgJCCvM0KXRMLjrwwPn3xV070VGmEp4apvWk4p02rDwbFDr+959mAg4DcqK+vK5TVKWarzH48HQ8fbXhpxCJf8Pp0IOQUo0+d0lpIzvekEZ7rrs2rwiAwCuRCYroPMJa0LLWwmdtl8P50l4hSgTFaKfDJ3Ckqqz3MMp6U++6urvSsWb2j2l5Yv2/3yr35XW9tUumjx8ubSQNWqqtqGZXWLWhsI05qOt+98onZRS2tVVWMD0WgTEaSJalqlxjTDSib3ECpFhFQZukd2yAah1LAtc5TpzKCCeQglOiHMQ6nQhBCyd41R2QdTqgtBGKWEcc4JpcQihNqEUEN+lworVJ9IBaVUhqEyrPN15ntK3N+nKs2YDMyEK86kCKSuSTLO65TShBCpJFNCItUiJUSyLIJEZHBBiUZl3DMBdM7tEW5b40KQSkFEKp5heGQ1dS7sI9y2D1NCvFJYCT0jMJZlhnpOHvwvRjQpioQSKnNNXRPCiv7+2Z/8Mo0wKUFxvk/qZCrdbARMhXe+p/uNZhIkCNWF1qMVoL4QoOyhz2TILJfhL6eAqHiTnd/ZORq36KREprKywd/Usnp5SWn1NioE6x/qfKq2evFGrzewtaqueVVDw7JmyrSGkx2v/25x67pGRrVFmsYaOecB27ZkB0oMw4hxbvts2079T4hw1Fd2mM7/s4d24YRMMZqs7jlNxdKYFiSUpiwp54tzO3Kqq+0pyvSUFaaEKfVR8PBTv/7uHxNC1LCe/Nr52S1Sma6nE6JMc1AQowunwRZFTSFA596GXK2XqYbQ0g17uUXGHSYlOPX1raWBiuryaHBkQk44VPlLy2vqV5TWVNc3Mc3YJMOYydgrzPCs1zR9U1lZ1cqy8toaqrFaIqjFbaufaVo1obRGcM64baVqqWkGsW2zKBoeCnFGZjRN54QI7Y08qD08ePLI5PfnCENvz+GPSbGS805ymE/OXZ35Y+LA3qcOhkIhKVTO+ahMlpQSp6mG+yBKaKxzRuBCEqCp6jqVdTPVPIszntNaSScs53zX2rqhpqyyunl4oLeHkCSprF26ZFnr+iWVdYsXEUJW2aa1UlB+UGOGTohYrmmeRR6vr5pRViEHrbiwxynVyhijpZxzPd3w05y1GiQ85wQYS6NJk7lGIsHT7gLIIUP53UB/1z+aiXg/YzQhRemMYUVFaGzg4GuvPd03OXzntqqcQpTOsspkMTmtK3eRMIQ3561k4WdwvgtQNsNm7jBvmEdxz6u45l6U8Djfz4pNS8v6umBwJBYMDiSbmzc0VNXWrfcagfXrN1+3jjFtFbetNiGEzpi+kjCymBLqlxPs8jshRJKm5iZkb8TpH+ZKFn7DQw1mTkBOXKV7SdGyLDNCSGoOy3IO6QXHBp4ZHxs4kkxEDyuLSV7nXIR6T7a3d3a2xTJYTW5xSmc1ZSM+EKSZ3/LzNub5IkDZCk02YpN6aExNXJ95qc9KVNQ8TOrd7/dL92NPXV1LoKfnWKS0tNpTv6SpriRQe3lFefXmlmUb1vScOrw7FgktWrn20tW6bjRTqlUlEtHzhf15++M4nyqmaZpFKONCiHFXvZLh8ZF/7uk5+DxjGk9EIuHBUE9QfrbCxDx1am94iuG8dN532c4vQZDOpwY2w7os9E4w3fCYQpHpmnMoTAmM+zvnZP+k0NR4Gxpaajs79w6Wl9eV1NW11q/ddFWNTulGQeimquqGFSMjfU/7A6UbSkurlmqaLt2PKy3LlHMvccaYzzQTM7xNiAYCc0YgTihLuYhTQkkyGTejsYlUQ+WWdWig7+g3pMUUiUVGNE3jSZMno2OnJ5JJyzp9+rCcoszGY08V3jnX5P5uziqIhIuXwEIToGwm/bMRFac4pfMsO2vlLF26rqWpZeOalmUXrWJM23SkfeczK9detlKjbKvh8TdSRisZYyVyHoZSFiZEBDg/s3gRLxBYaAQmvdFTxeaCh61ksntyHOCUdJqghEQJISOcWz1P/Me3/ikc7pdeLUqE0jk+KH/6dI4OMul0LuULDRvKO0MCxSxA2Q6XnTMklmZ+xjl05hab1P8+n09vatqwrqSsbPOmS2/fsmfnz3/bsmzz5sVLVq8jhJZRStfYthmghOia7k1aVlLOEEvngGLmN8MmgWgg4CRwxpFBrlo68y697YQQgh2aCA4Pjo8NJQnhIcHtLpvbQWHbJ59/7se/dQzbKVFyi5NTmNwipYQJVtJ53hiLuQN1WimZhs2kgKQTIOVCJN9T1oicq6moqCtvbFlfXl5atVYwrYWbif3M8G5atmLT5YbuXck01pxMJry65h0WxK61Lbgsn+ftH9WbBQHKGKGT3nqCiKRcHUCFiPf1dvyd4HYnFXawr//kmMaFLYQdO3788EAo1CPXBDjdxJX4uNc4wTqaxb1ZKFGLVYCcnmhugVGik/G9vLwuUFm5qEHTaCAaDYf8ZZX1F2+5aanB9Kv8pRWrPR5/HaWs3LbNIU0z6mzbLF0oNwzlBIFiJ0AZCxEiEkIIOzIRisupJULo8HB/57dGRntP2IlEaDwRDJ0+vl967Ml9BpX4yM/OITmnZYT5o2K/8TMoXzEJUCaLR1kxUnCcn53/p76vr1/aUF5Vt27DxTdtKa+o3iqECAjB+zTdWCsdAhjTyoTgBtyZZ9BSEAUEZkDAMafELds+TokYIoSGCOMTvV1H5VxSNMnNkyO9Hb85dGjXoGudkntBrSxBujkld8ngYTeDe1WIKMUmQKo8TutG7rmlhEd+nhQen1FT0+Cvra1dYwlBS/3l12y9+i3bPbr3oqQZL+e22sC5EFiRJwiAwHQENEPuJUu5ECQ51NvxtWBo6Nh4cGjPyHj/uB0eTMRiHkvTwvbo6KgatlMCBMtoOrgL5HoxCFA6jzQlOvL9nL+mptUV6zZdt5ISctni5tVXaZrRKOdHdcOzNJmIwftsgTQ8FBMEnAQo00Jy8awgfCIWDsUS8UiEU9ZpJsJPH9y346lYbCI6ONgp3b6dQ3ZTbTek5pBUNrCKirDJFVqA3HM9ytKROwcr4ZGPSanPjY0rVl5zywNvLQmU30kIXyx3WS5CpigSCIDALAjIYbszuz0Iy7asY7aZeIkTGjzVc7Cf2mLEsuyBpGUO9XR2d/b375Vu4VJcnGKUyaEBQ3WzuC9zEbVYBEjtNuAUHSVC3quuvXdNXdPSTVWVjfcKbq+TZ8DMBQykCQIgUFwE5AkcRFBbMwxh25ZJBQnJI5aE4P1mIv6rx374V9+fFKBsLCO3FQSrqMC3u5AC5F6fI62f1EFikwIjLR/jsu1vW7Nu45VfIJRulOtwCswL2YMACBQJgXg8PDA+2v8yIaSbcH7QZuJIaLBnKJRMRA7tfXbYYRmlG6o7H4bopuq/F4S4FkqAnOt6Jhd1psQlJTqEEHlypXfb5XctX3/xtX/DGNtcJG0exQABECgSAnKoTh5JIdcfCc6lS3c0EhmP2rbV0Xlk3yPh8PDgkSOvjDrmjdItilVClM7Nu0hq+oZiTLUjjLseRS1EhRCgqcRHDq1JAfJv2XLr0nVbrvuMx/BeVaytAOUCARAoLgKTbt+mbZmvECJOE0p7Ok/sH7aT5tFkLHLk1Vef7HIshHVbRm4xcltJxVJZ99y5LJfqy5XgpJsHK5byny3HfAuQU3zUOp5zrB4pQH5/WfXNdzz0keraxfdSQjHsVnTNBgUCgYVA4MwptYbh40TwMUFFv7B57/ce/fh9kyLknjfKJEjFJETOPlR+liNITkFyW3lOISq6m1YoAVLiI8VFDrdJEUoNu23YcF3ztqvf/B0ixNKio4UCgQAILHACgo8Mnn6aavSAoKKNEHG8v+tY2DSj4/v2PTfgsI5kPbP1pptPJsphS71LAVIilCrzxRdfWbL1qnd8zZwY/vRjj/2tqtN8ljHrvOZTgFRezkWlZ+d7pAAZRqDsne95+O88Ht+NWdcAAUEABEAgBwKM6YISERNCRDnhkWQsMsgo69j5whOf7ujYPTbFEF2htwNyOm45+1H5IK/6V37f+77wEZ8v8D8s0/xq55Gdf//ii0/IM52Kci5ovgVImYzK401aPgFlAd1214duaGxa+fVJRc+hSSEoCIAACMyMAKVMds6WEOLJRCJ8qqfrULuViO3fufMX+6bwpFOZzafzghIg5bgl39U6ydSayPXrL6259Jp7f00JbaGU9sYTkXf/5Ad//fxkYYtOhOZLgJzK7VzrI4fdpAB5y6rqqu6868+/5AuUXjezZoRYIAACIDA7AlKMNF2PCi4GbG71nO5qO5qIx55u2//Ub0ZHR+X2+O45FpnhfJxp5BQf95IVOZKU2r7s3vd89r5AScVfq7WSmqa98L1vf/wGh5DODlCeY8+nADnnfaRqq3mfQCBQEbjmpvfc3tDQ+jHKWF2e64jkQAAEQCBnAppmSGEJJRKx73Yc2fWMGY+OjsVH+zoGusbI0JDan855IuxciZHT8cC9WF/NobM1a7bVbbvyrV8yPP7r1FlljLGjgvO3/eCfP3U4jVDmzCTfEeZDgNzWj1poKl2uUxbQ8uVb6q+49u1f9Hj9l6nze/JdUaQHAiAAAjMkMGFZyTEqSB9l9HB/T8fhcGT8UCQxdqi3c3/vUHoxyud6HOVwIB/inYv1U0tWJh/mtRtvffDq5qXrvkgpq3HWk1Ly9PGDu979wgs/U4tzZ4gh/9HmS4DU7tZu8fEZhr/ivvd/7nGN6Ysw95P/G4wUi4+AYXiJbZuEc7WpMyG+gDySitqc26fNRLxWCB7QdJ3oHn+cCj5h2WaPbVkVgvPlvkC5PKA0IQQf5MIes5LmaSHsRo83sJlpmkm4CHNhD9i2HbJsc1DX9LsMj+ynUgebTgjbHufCHrG5FeK2fa382usvJZNraJIybc7tsWQi2lJ89ApZotTpsFzTdZsQOkoE6YyEx7760x997lnHYlfnmUZuF2j3UN10lVH9sxIgtVhfPrw7/zz3vOvTD5RW1P0ZpcznPqlZ1z07BefPfO/Rnz9CyHPqmICimA+aTwFSE2bK8pHv/utufuDKZSs2fWe6O4HrIFAoAoxphPM/HO8h/xdCJAURccJ5gmlGLSE8KYSICyESjLIY5/y0rhvE5tZqSpjcxXmUc7vbss3uk51t/a3LN7xF1702t61O27Z7du98otdKJsZNMzp81Y333SyPfh8c6Ow71v7yiLDNUCIRH9m49baWuvqWFbte+I8Ry06MmFZywk6ISCIxMbJxy82N0Vhw9dBA9yixrZhpJiYsy44GAiXRdZfcfPehfS8ME25HLZEME5tHbduMCI3Eb7r9g+8QnEdfe/nXw/F42OKWGbaJLU83JTe96SG5XobYpnlKCC7rSzuOvDq0dsM1D2lM8wlG5QmoEaHO6BE8SgldTYRw7dUoYoKQksmn9ULdxjnJNxIea4tGgs9RQX8fiY8d6x/sHY+NjQa7uvbF0mySmqvDQrpF+2rqQj5RpLyIb7/7Q3fUNy5/mFJWlr6S1BZUPNy2+/ff3LPnl7It5iqEc8JOJjofAqSsH6XeEpwcekv9veXeT320qqrhwTmrIRIGgSwI6IaHCC7PTLNSC591w2NxzscEt0eC4yPjVTUNGznnI9y2xiPh8TFCySnB7WPctrt13XivIKSbCnI0YcZPtb32dDBuJ0avuPLN1yUT9lD7vmf6pCAkRHw8GR4LjY+PJ1pb1y6zbWbHeWw8MtYfjsViZ89/r6tbUh4Oj8Qmv3M8qZYwQmR/n5NLLQ0EAlo0GpVzFm/4zfv91Z5YLG4TEpVP62f7g8bGFU2cJ5JCEJpITIQTCcrlk3U8nrSXLGlZLxjVuSCmMK3EZHmozZLW9ivvvUnXNOlYdPZlcbOrrLTmSsPj3aS+lGL2hxB0ESVEjoCkXppmEHnct2XKpIv7JR9GCKUJIvhoIpkYNc34IU3T951o3/3Krl1PvORY8OqcK3Lew6ksEedp0LJdqmUrsg+Vf3pDw8qaG9/0vv/l8fi3TUVKCHE8Gp348M8e+4K01tyH+hUM8nwJkHIblE9GsnGeFaD73//It73ekssLRgAZXzAEPF6/advmhG1Z1R6vnwguTtvcPNl36ujJpJk4XV5Va1dUNqzv6TzYTRg9Rah2lHJroK39pdjGDVdfYQp7WAh28viBHZFEwoyF7bF4bHQ00dByUZ1IhGMTE5F4NDosrYdUp1JSV+eJDMVNQibSDXs4O550ndBUHZO6NtPfrzveVP87h4GcAuaMo57Uid9f5fd6U+JChTgjMsFg0ty07aq6yopFlfK7M3988l3QJS3rtwfKKq+QYQXn5uBA12h4fMRctmpLC2Ps1oXSQM8cIUFNeRx5PBHdf6x919+c7Dy4Z3CwU+5TJzt9584LmUTIeW+dy1akAKVGjSb7z5QA3XDr+29ubl3/MGOscipOVOZP2S/jwdBDP/nJ59Vap4IPw820AefSJqSKK88NJTxnIb73T77yJGPa2aefXBJGWBBwPEXLbVc4pdTWNY8wraQu//d4AxO2bbZbltn+yo7HDzUv36A3LVm9ce+u3x6Jhkfbh0NDR0f7T47LDsLv92vy+SgWG5HWiHO4xO3plOorXWH+8HD/Rgslndhk+vFP1ym4r8/2N5wuvltcVN3cYpROkM6KkWOLGGc857BS6rPP5/MYRqmHEMGSSdNOJEKSP734kpvrN2+7/U/OZH5GzJSAMUpKGNPe4rj/jrPBhHzgLeiLMWYxzRjg3Dp+7NAruzgnTw+c7tkXDI7EhobalTt3ppNdFS+n57CyfmQfmuo/KytrK2649f3/raKq4c4sK2trTP/M9x79+dcm54Kma2tZJjvzYLNtvNPlrCbPlN+6WvcjAXobm9cuvuW2B/+Vado5XhvTJYrrFyYBOSxDCU0KwcOc20HKtEpGqG1zO8gtu5sQfjAWCx8LBYcqGhpXLLZs+8jeXb/qjsWCXUND3f2RSMQKBAIGpZRHIpGzlsoU6zjSicx0YjKdZeMUqmxvZD47imx/89MJk1N80gmR+s4tPs6wSjTcoqS+13y+Su+k+FA5HKg+NzevLt26/Y471FAeY0YzPTOyQvz+krsFlfYI8xGa2qZGthvZeDTbOjvSmS37WYczDK8piOgLjQ11JBMTL/eePPL0K6/8Rh4joRwW3HvQKWZqmx0576PmztXDu+fSK+/auH7DtV+mlNXnUMixWCz23n/70Wd/XQxzQdk2xhzqdzaoW8XPrvtRCr7pklvXbtp68z9NZz7OJHPEWdgEDI/X4rY9xLldrRsezbbtvvDEaHciET1GuTg4Ntp7tKS0dpPH7wvGwxNHjx95aWg4MjQy3tcXqa5u8nm9Hq2vr1MeXub8caceol1/6QTB3eGnmzzOFGY68DMRk5nEyVSOXH/z2YTPZDFNJUyZBMopRs4wTrFKzSv7/X5pFaSG8nQ9UGIYui5F6urr77uDEKERmlpT6E+JliBeW/CKJa3r3iy4TSwz5Wcxb6/JU16ThIhgeGJs3+H2nX/ddfzw0VCoR050qaG5P7hFnpmPU1MXSoDOzp/fevcHb62uanybz18m535yOhmaUfY618kDP/zmJ9omAeSzfeXENJvGlVOCjsBOAVK+62ctoOZl6xZtv/qdDwcC5bfkCnCmBUK84iOg6x5i2xYRghO5R5emG/2WlTx49OCOw8KyX1m+7vIrOo7vCXJuvjYy2t8+fPpkxDRDiUgkYpaULNIZi9kTExPOITP3BpJuK2amYjLTIbOpoBfsh5+hULPpDzLFnc6Scg7ZZRIl5/cqvJqgV/+f3RXa7/d7zgzVeXXpNZ0SKUNohjC0lWsve39FVZ2nddnF9YxSaSEZuuFdwi2zVQiRwYssv78br8efsGzzkBDiQPveZ58Nh0deaGt7qde1W4Gsl5q6UNZPagrDMIzAfe/70s80TVsyk5IJwTu6u9rveu6pHx4ttBU0mwY3Xd3dAiRVXHlv+FtXbGrYftXbv+Tzl1w5XUK4vpAJpNZOmISSOCW0lBARp5TJp76j4dDowSNtL+7dsO2Wy4gtTr++95mDo0M9u3t7j4w4fhhSULIRFbewZPpfWUGZoGYjCtmEWcg3LR9ln65vyUaYprKg3jCX5JpzcguV8sZNTQt4vRU+j0c3OOdGaWl53fW3vf9tpaU1t6asJUr8RBCfZSeli5tGz/Rb8iE67y9D9wU5sY6NjwzsnggOPfvUb/7lt45MnItOz4rQbXc+dGvDkjWPzPSoGkqpSZn+P7//7Y9+YdL6mu43kfd6qwSnaySzyTiTAEkvOP/SpRsWXXHdO7/k85XgwLnZUC6iuNJ9Vi6wZIwRQllMcD5q21Z/Mh7dJyjZp1H2FkLpzlNd7Uf7+js6RgZ6To+N9Uabm1dWnDp1XImOrJEaipjuKOWZiEyu4pFr+CK6I0VZlKn6nGyvZZpXclpT6eaVnFaTEqTUd9XVDVV+f0m9EIwRjQV0qvk2XX5Hmc60irLy6jfrhmctJSxApThRpllmIq99J2NaklEyND7e/+cH9r/U2dN5ZCASGZQ3UHm/pRae1jctr7nhxvd+zhcovWY2d1duvDoWGvrgEz/9O3VcQ0HaeV4huoC4BUi5EKasIL+/vPTuez76SKCk4vbZgETcwhKQU7267olz2+7s7+3obmxetWVifPj4xMTIHi7Iznh0vOv44ZeHe3o6xtet29YwPDw8PDTUpRbpuedj0g2XZRoyy3YOpiA/rMLelfMq92xEyS08zgeHPVAfAAAViklEQVTsqSylc6yiSQtKfZc67sDrLfdeculNm33e0kah0WpKaBURoqqpeU2pZnjXUELW55M2JaKHC9He092+q7+va/9Q/7Fjg4On5eJR2X96rrnx/u3Llm/6LNP0We2ZSQkJckEeadvzk2/u2bPHuXtDPqszbVoFEyAJ9J77H/5MaVn126k0evFaEAR8vgCJx6NErvJnGutLxKL72vc///LIUO+vT5zY23PxlltuCI6efLm7+4h0bVbWTDqhcS+GS+dx5hwamAvvsgXBHIU8h0A2c03OMJmsJfccknPI7hzraNIZQJ2/k3ovKaks3X7tvduXrdj4EKXUp2meFsJoaTIeSc1pzvbl8aQc+gaCwaHXD7/+/I4TJ/Y9q2k+7ZY7/vgvS8qq7plt+md+WGLw2IGdl7300n/2uIa585F8VmnMZcc/5RCcFKA73/oXf1RX3/IRQqhr646syo5Ac0SAMc2UCwIJpQFKiMkJDwnb7hVE7G5//fm2izZfd+1Q/8k9PT3HXu848uIr0iEgzTb1zmE0JSTpREfVIp2lkq2VM0ckkOwCIjBbYXL2V6l5osk/52e1Lid1raysrLSkpKZB133VVDcqmlvWVC9p3VBjGMYqjzdwJ6Opfo3NRpDkcLamGeHXdv3601U1DTWNzWv+YnLfzLzcGl0zXo6Hwm9/7LHPFOTk1PkUILVza2oOqLl5fe1lV7/lI6Xl1W+f6WRaXu4AEkkRSK2aoNoEF7x3YnzoABdWH6HaKp838GoiGTt+7OCuU0NDnR19fZ0Tq1dvX3T06M5+x8mRynpxz92ks2AyWTIYKkNbnGsC6SyjVPN3ZOwcslPuzW4xUh53TkFKrdnxer1GaWlV5VXXv/u9jNHFnJCy6urGBspYGdP0akZpuZnMfYuheCx0zOcvX+FwtMgbK5tb/7Dv5Re+eODAk2rUYt5+i/MlQGofuLNu2NXVTVU3v+nBLwRKK2/OG0kklDUBuRiTMBZjlJUIygaT0XBbf+/x35lm9JmOI/uGOU8ktEDAGOsfDoXD/eksnOnmb5T4TNeYp7uedZ0QEASyJDCTeSVlCWUaqjtn7qisrKxE6LpHF7qxbNnFNczQF2m6p1lQ0rBl6+0fSybkNGj2L/mAKMTc/FQ0zfj+jmf+/WNHjrwotwxKN+eafUFzDDmfAuTeSM939zs+8VB1deOfUkqlizZec0jgzD5VwiKURQgRR81kcvfYaO8wIbx+eODUc7teeuIp16JNtweae9sQ55xNOktH1WZufjVzyApJX9AE3H2icw5JWUtuK2m64Tr5AH52U+atl7/pgQ2bblir6foSxowWIXiFndo6iqldH+b1Bsiju22Lf/hH//Lf5O4I8+qQMB8CJPNIt5Ord+tld1x80abrvsmYVjWvxC+AzFJHBnAxfmZ/NKIlErF+QujusZG+F7u69u1t37/jeGlpvUapxicmetW2NM71Nu7P6UTGLULpyEKALoD2dh5VMdu5JLd3nXu4zilKSoDU1jpaZWVdhe7zVPn0QNWihuWLW5dvWlJRXf8+XdNrOee68/iPeWArbDP5zOjAqT998slHu+ZzcepcCpDipsZJ1WF0ajGq1zD8pe/8o4f/3uP1Yy1QnloZpdSijA2Oj/adsBPmk4KxmMaI/+SJtl3j46FTHR075amIzsWdU621yeQC7SwtBCZP9w7JFDWBdH2lEqF0lpHbeeGcIbpJzzrZJ0pR8hpGIHD1tffcyQzPqtKy6qbKqkV1gtuNjOmVaj+7uaRDKU0yxh793rc//imHFTSXWabSni8BUjtiO7eUSO1rtHHTTZdtveL2R+XKxTmv7XmYgW4Yo0KIEGOshttiKB6b2N19Yu+/nji2b9/ExGCMMWYzxvjY2Jj7DPt0Q2pOK8dNC0JzHrYfVGnWBDI5Nrg3WlVu3053bilA0jqSc+MeQgyvYRC/9GQoL6upXbvm8mXLVm17hDJ2zvlKsy5xhgQoJZame9/zL9/8i/+YrzOD5lOA1ImoZ88CUpuS3ve+R/4eOyJM3azkMQNCCEYps4jgUU7ECSL4noNtL/xXz4m2V2saWusO7vv9iTTWjdPacTsOqEyzmXiEAM3VLx/pLnQC2c4bKRFSo0Jy7lsJ0KQIpRacGivXXLZkxYrN2xqWrP6kHEKfN0BCHDuw56eb9+zZMy8np86HAClTVB3J4LaC/He/45MfqalpfN+8QV5AGWmaZlmWNRSPhg74AmVLEtFIeyQ+8WJ/96G9hw690B4Oh5Vlo4bSMgmOrLVzt91sF3YuIFooKggUBYGpBEleU1aQFCC1PEUKUKpv9Pl8JXff88nPlZRW3TDftRGEhM1k/D0//sFf/Wo+FqfOlwApEZKw3WdbBG66/cHbm1sv+tv5hl3M+VHKkpTSnsGBrlcS8cgTvd1HXm9ausbf290+furUwdFgMKh2gJZC4l706RSadMfvwpop5puPsp2PBNyec2ppiuwTU2sjJ/tG39U33H/p8hWbP8s0rWH+QdAIZdqHfvDox36a5iiTvBdnvgUoNeHmECEJPbDpkltWbL70th9SQsrzXsMFkeCZHaMp03ooJXVEkO6JieEXDr/+4vcOHPhdt+u8EKelk25ILZN79FTzOwuCEgoJAgucgHMeSPWFUoBK1DyQ319WftNtD/5ZbX3L/fM0R+9CSoVpxv7r+MHX/mTXrv9UR0TMWd8xHwIkC6/UX80DKUsotTC1vLym/LqbH/hAdV3TA5RQKUrn9YtSxoXgTHqsCSGCSSt5NBmLPn2q4/Ud3tLSZeFw6NXXdj153HWGfCZvNWfjwLDaed1yULkFTMC5gFWd8yP7P9kXlk4KkLFm/dUrLrvq7q9oTFtWqLpSxiJciC93H/7l15577jm1RGNORk3mW4CUN5xzXZA0Pz2r1l3atO3yN3/G6/VfXyjwc5svlR4EoWgs1OH3VywKjvWf0A3v0zYRR7qO7+/e8/Iv5OFQUmTU6YhqaC2TlZNJeOa2GkgdBEAgVwLO4TclPmruR1lAKeeDO9/60XfX1i/5SKG3J6OM9jJOP/C9f/6EXKCejZNSrkxS4edTgGR+Z1cDTyq/OqIhddbFijWXLLnq2nf9I2PaqhnVpkgjMcYmbNvq7Os58sOe3o7fNdS1LOs4um/f6OjwxMREr5zLcZ8Nn421M2dmcZFiRLFAYKEScK4Jcp5yqg66k0NwXl3XPfe//0v/rml6U5FU9MSrLz5xfVvb86fnanHqfAmQ4unc5ty5P5xyTPDWNiytue3OD37N0D2bJ71FiuReZFsMagsiIoTzw4yxVi7EawN9Xb/97S+/9eMs53KmcxqYE1M429ohHAiAQNYEnNv4qNEfpyNWyvEgEAiUvumtH/1YWVnNu4qtzzM8/u/3jA59/Df/+vkJhyWUNYDpAs63AKknAeWKqHZHUO+pMdFrb7rvumUrLvkspdqi1BG5C+Alj7kVXIwmktFXg8HBZ3p7ju8or6pdPdp74uW2tpfk7gPOPZbSWThO5wG3yEB0FkAbQBFBwEVA9V1q3Y863VQ+cMu+LmUBbd56y9oNm69/RNe964qPIB237MTDLz/3wvePH/9N7tt4T1Oh+e7cMz0RKAFKjYO2tKyuX7/llnvr6lvv1yirLb6bcqZEjNKgSHmw0JFwaOS5aCT4g56ugz0nTrzaPzExodbnuIfXpprTwbBasd5slAsEcifgdDyQfZzakPmsABlGwHvrXQ+9q7au+aOUUnm9qF6UUnna8Zef+c3jX+3p2SkXp+a1j5pvAZKFdz4VKLPUuUhVPiXIJwN9+9X33Lrmou1fL6o7QohgTJsQnB8/2d32nYbGlTd3d+77xo7nfnbAsQtBJldpdfNg4RTZTUVxQCDPBDKN9qScriYtIG9lZUPZHW/98295vP6L8px/3pJjmv5qUiTe89ij//1YvueCCilATtdsKUDKM05tTWFcesVd21atveKPNN3Yrmla9aQTQ97ATp8QFYSSOCXE4LYd5oLsG+g78fRQ77HH9+59ps91CmgmS8f5xADhmR46QoDA+UDA7Xig5rnPEaArr3vHDavXXv7lYt8LkzL2nR88+okPTwqQc6H7rO5VIQRIFdi9MlhZQdIqSg3Fyb+qqiXlWy+/7aaqmsZ7SkorN1BKy+SeaLOq9bSRpfDQWCIROcYt6xeE0k3RcPCpgcGuF1/Z8bjcb00NoznndTC0Ni1XBACBC4KAc+hNrX1UAiQ93lKfdd1Xcv8ff/67GtXXFDsVuUXPMzt+0Npz8KA8NTWbY1iyqlIhBUgNxzmfFNQeSWq8NGUVeb1eT13jipqWpReta2hc9YHy8up1hNBKQkT+N+ljLGZbiVNjIwM/Hujv+sXJjgO91Ytb/f1de8cz7Cjtdh6AlZNV00MgEDhvCbj7NLX7izoR2rjy+ns3L1128Sc9Ht/F8z+yMzPuhi/wle9+48N/lc/jGopBgBQNp4u2GpJTVpF6l2Kkr1q7fdWWrbd+Vfd4Vgoh1xbJ4z5n4i1HBaXCFpwMEkotQsTo8ED3/20/9tKPThzcI5Vebezp9FpzHtSWzXk5M7vbiAUCILAQCTjnuOUDtNpyR23C7A8EAv5b7vjwhypr6h8s9ILTHAEnPUx/z3ce/fnjhDwnnaxm/Sq0ACkryGkNyc/OMzOUGKkFXKn/r7/lgdsaGldeTxlpplRrYpR4BSGlmmYYjGnyZpMzx1CnXikhEXJgTW5tLojNiYhZZuIkEeSFwZGeHZWVtUtOdbX94uXnH++ZwplApjXddjdwmZ51s0QCILBgCbiH35yu16mF95suuaF145Zbv6LrxqaFVUsqBLd3h2ITH3z8sS/uz8e6oGIQIHUPnC7aThPWeZKgeqJICdSKFduqy6vrany+QBUlmqZ5NH9j44pbSkqq3hyOjJmUMiGIGKJc9HFudxBK/YxpKzgXO0wz9urYSN/gyRP7jnZ1tUcJqeOEDLm3wVGCk27ME0KzsH49KC0IzAeBTAJ0dgHqW9/xqXdWVNd/nlIq54IW1Isx1qnp+oPf/d9/+fxkwWfVDxaTADmtIfk53RnryjJyDtc5z14n69ZdWVNX17Ro/9Hd0lmAsGTSJiQuEgnNIoSKkpISEo+PmKFQyHmOTi6Hti2oBoPCggAIzCsBtwCdnT6YdKzyfODDX/83TdMvEoKPyl3wBbeDFreXeD3+RWdGbYQlBDE5t0c457ptW6ljGeQ1rzdAhBByNCcphG2ZZkJuZJp6aZpODCM1+ENs246bZlzOOZ3z8nr9JJGIzQaI0DT96+Ve/pl/+IdPqEPrZpxeMQuQEiTnDXWeKJjusxuE03Jxz+NMJzpwJphxs0JEELhgCTi9e51OVWoKQb/kkjfdJYRtJ5ORYVPYZmxiYviya+6+uvfkkUWWmbAsbo9z2wonk4nBxUtWNi5pXne9IHwimUwEjx/aHePcCtrCDFVXN5e3Lr3oZumhxgkfDY0NxU93tQctYifLK+sqly/fcoMgUuSoFLNThAjz+KFdY2suuupBQUiESvET4pSQgsf5sCAkoevGm4ngnBAqrycFZcOUkAlCyUWE0DIpjpzzSG9/xwP/74l/emm2w3DFJkDOVussm7qpyjJy3mTnNWcc91yN+t8pRDK9TFvgzMq0vGB/fqg4CFzYBJxTCeohWU0dqC15nP1X6kE7UFtrRIeH5aiM6ndS6VRVLfYFAuW+aDQUHxvrVTsRpOJUVVV5q+uX1ZnReDwUGgsnEgkei43KzY3J2g3XXiyEbZpmMkztOB8eHhxNJpN2LDZmbrrk+mtN0wxxIexkNDRqM25HxoMR0wybN97+p1ceO7zb5Dw5QWyWtBkP6sKKbtx620aft7QkGgsHu07si/v0wP7nn/+pnC+fVT9ZzAKUjRg5b/Z0zT6d0MzZNuPTFQbXQQAEzlsCboGRlpBzJMc5uuOGkE2fnClMNnEz9auZRo9SI0WLFy8mHo+Hd3V1OacuZn0Dcy3wrDOcRQJuiygXkOngqu9mpeCzqA+iggAInJ8E3A5VbqsoV9HJtp+eLtx0153lco8YpZuymPXdy6VAs85sDhPIph4Qmjm8AUgaBEDgDQTSjdBk01dlEyZb3LNNK9PIUV7609kWLlsICAcCIAACFyqBfA2ZzSW/qbTAvQwlL+IjKwMBmstbirRBAARAIDcCC6FPhgDldk8RGgRAAARAoNgILAS1LTZmKA8IgAAIgEAeCECA8gARSYAACIAACOROAAKUOzPEAAEQAAEQyAMBCFAeICIJEAABEACB3AlAgHJnhhggAAIgAAJ5IAABygNEJAECIAACIJA7AQhQ7swQAwRAAARAIA8EIEB5gIgkQAAEQAAEcicAAcqdGWKAAAiAAAjkgQAEKA8QkQQIgAAIgEDuBCBAuTNDDBAAARAAgTwQgADlASKSAAEQAAEQyJ0ABCh3ZogBAiAAAiCQBwIQoDxARBIgAAIgAAK5E4AA5c4MMUAABEAABPJAAAKUB4hIAgRAAARAIHcCEKDcmSEGCIAACIBAHghAgPIAEUmAAAiAAAjkTgAClDszxAABEAABEMgDAQhQHiAiCRAAARAAgdwJQIByZ4YYIAACIAACeSAAAcoDRCQBAiAAAiCQOwEIUO7MEAMEQAAEQCAPBCBAeYCIJEAABEAABHInAAHKnRligAAIgAAI5IEABCgPEJEECIAACIBA7gQgQLkzQwwQAAEQAIE8EIAA5QEikgABEAABEMidAAQod2aIAQIgAAIgkAcCEKA8QEQSIAACIAACuROAAOXODDFAAARAAATyQAAClAeISAIEQAAEQCB3AhCg3JkhBgiAAAiAQB4IQIDyABFJgAAIgAAI5E4AApQ7M8QAARAAARDIAwEIUB4gIgkQAAEQAIHcCUCAcmeGGCAAAiAAAnkgAAHKA0QkAQIgAAIgkDsBCFDuzBADBEAABEAgDwQgQHmAiCRAAARAAARyJwAByp0ZYoAACIAACOSBAAQoDxCRBAiAAAiAQO4EIEC5M0MMEAABEACBPBCAAOUBIpIAARAAARDInQAEKHdmiAECIAACIJAHAhCgPEBEEiAAAiAAArkTgADlzgwxQAAEQAAE8kAAApQHiEgCBEAABEAgdwIQoNyZIQYIgAAIgEAeCECA8gARSYAACIAACOROAAKUOzPEAAEQAAEQyAMBCFAeICIJEAABEACB3AlAgHJnhhggAAIgAAJ5IAABygNEJAECIAACIJA7AQhQ7swQAwRAAARAIA8EIEB5gIgkQAAEQAAEcicAAcqdGWKAAAiAAAjkgQAEKA8QkQQIgAAIgEDuBCBAuTNDDBAAARAAgTwQgADlASKSAAEQAAEQyJ0ABCh3ZogBAiAAAiCQBwL/H1oeidWqRvuzAAAAAElFTkSuQmCC;rotation=90;" vertex="1" parent="1">
          <mxGeometry x="550" y="374.5" width="79" height="45" as="geometry" />
        </mxCell>
        <mxCell id="IQgT02N7gyP_bAqmJs0r-8" value="" style="shape=image;verticalLabelPosition=bottom;verticalAlign=top;imageAspect=0;image=data:image/png,iVBORw0KGgoAAAANSUhEUgAAAaAAAADGCAYAAACU7FSqAAAAAXNSR0IArs4c6QAAIABJREFUeF7tnQl0XEeZ76vq3tub9s2SLEvyvsWO7dhZnH1PyMIWCAlDgAwZhmGYYX28d8IwEGCGx/CYgXlAZmBYDi8DzDBvAoEAk5eEkDhxHMexY8vyKkuyZe1bt3q/91a9U22Vub7plrqllrpl//scnW71rfV3q+t/v6qvqijBCwRAAARAAAQKQIAWIE9kCQIgAAIgAAIEAoRGAAIgAAIgUBACEKCCYEemIAACIAACECC0ARAAARAAgYIQgAAVBDsyBQEQAAEQgAChDYAACIAACBSEAASoINiRKQiAAAiAAAQIbQAEQAAEQKAgBCBABcGOTEEABEAABCBAaAMgAAIgAAIFIQABKgh2ZAoCIAACIAABQhsAARAAARAoCAEIUEGwI1MQAAEQAAEIENoACIAACIBAQQhAgAqCHZmCAAiAAAhAgNAGQAAEQAAECkIAAlQQ7MgUBEAABEAAAoQ2AAIgAAIgUBACEKCCYEemIAACIAACECC0ARAAARAAgYIQgAAVBDsyBQEQAAEQgAChDYAACIAACBSEAASoINiRKQiAAAiAAAQIbQAEQAAEQKAgBCBABcGOTEEABEAABCBAaAMgAAIgAAIFIQABKgh2ZAoCIAACIAABQhsAARAAARAoCAEIUEGwI1MQAAEQAAEIENoACIAACIBAQQhAgAqCHZmCAAiAAAhAgNAGQAAEQAAECkIAAlQQ7MgUBEAABEAAAoQ2AAIgAAIgUBACEKCCYEemIAACIAACECC0ARAAARAAgYIQgAAVBDsyBQEQAAEQgAChDYAACIAACBSEAASoINiRKQiAAAiAAAQIbQAEQAAEQKAgBCBABcGOTEEABEAABCBAaAMgAAIgAAIFIQABKgh2ZAoCIAACIAABQhsAARAAARAoCAEIUEGwI1MQAAEQAAEIENoACIAACIBAQQhAgAqCHZmCAAiAAAhAgNAGQAAEQAAECkIAAlQQ7MgUBEAABEAAAoQ2AAIgAAIgUBACEKCCYEemIAACIAACECC0ARAAARAAgYIQgAAVBDsyBQEQAAEQgAChDYAACIAACBSEAASoINiRKQiAAAiAAAQIbQAEQAAEQKAgBCBABcGOTEEABEAABCBAaAMgAAIgAAIFIQABKgj2os10PtvDfOUl5on2fOUzT9VBNiAw9wTmqxOY+5ogh3wQyFd7yFc6+ahTtmnkQ0DykUa25UU4EFjwBBZiR7Hgoc9TBXK5t5nCZpPGVGGyie/EkWv4TChzEYKpwuZ6LZd8nWWfabx5akrIBgTmhkC+fvBzUzqkKgnkco+mC+u+rv6fiQA546SLn6swTVf2XFuDu1PPVkyyjTdduOmuz1Y8IVq5tgiELzoC+f7RF10FF2CBsr0nUwlApmvpvpffZRImhW8qgclFiKYLO1V+M7EY0nXSmb7LJBjTCYm67gw31XeyHunCqvplW+aZ8FiAPwcU+XwmkG1ndz4zKFTdsrUaprNaphMVp5Xjtnjc196QVmlpvR4OD9iTkFLXS0rqdK/Xo48mxk0SicgOk1ZXVxseT7keCFR4GGP68HB/hFIqDCNglJQEdOo1PHW1zR6ma80jQ32nE+FQWNOoXl7T5CstKa/w+8s3JWLR/q4T+/Yxr8dorF3q8fhLmnSPv1nXWVPCTI72dr7+2/KaBubzVtZ7vL5GjWmNRNeXHW5/6Rs+5tVrGhpLdE9JmYd5GzSPp4ZRff2h/b//mh7waTrX2KLFrWUewxPQNW/z0ROvvxiNBc0SPaDLOnm9JR5Z3sq6xeXdxw/1jI8PmL6qSs0nODtT5xp9bKw/Pjx8Kj7J4qzIlJWVaYwxHgwG+aS4uAXILTiZ/s8UL1sRTNeWYSkV6heOfKclAAGaFtGsAkzHN5N4pLME0olHpu/c6Sor5w3vra1rSsvKamva2l48GQgEtKqqlrKy6uqagL+ypq6+paq0tLLh0Os7njd8vkqPx1PRuuzicsJYHSGksb+nY++ixhZBKCsjgjYxqtURwpdzzquEIM8yRmxC2GJCSL0gfHF55SK/ZSZORcPBDsroEkJorc8bqDB8AQ+jrMRMxkejkdBpQXhDecUiL6XUSyjxUsI8lpWIxsLBIX9ZVYAxTYqFhxAi/7zj44N7mCB1JeVVXsY0nVFmEEIMQWggND7wIiGkRn4ur6jxEUIYJdQbnhh5kttc/rdk0iRpJYQKv6/EYyZj/8ey7TAjdJGgJCCvM0KXRMLjrwwPn3xV070VGmEp4apvWk4p02rDwbFDr+959mAg4DcqK+vK5TVKWarzH48HQ8fbXhpxCJf8Pp0IOQUo0+d0lpIzvekEZ7rrs2rwiAwCuRCYroPMJa0LLWwmdtl8P50l4hSgTFaKfDJ3Ckqqz3MMp6U++6urvSsWb2j2l5Yv2/3yr35XW9tUumjx8ubSQNWqqtqGZXWLWhsI05qOt+98onZRS2tVVWMD0WgTEaSJalqlxjTDSib3ECpFhFQZukd2yAah1LAtc5TpzKCCeQglOiHMQ6nQhBCyd41R2QdTqgtBGKWEcc4JpcQihNqEUEN+lworVJ9IBaVUhqEyrPN15ntK3N+nKs2YDMyEK86kCKSuSTLO65TShBCpJFNCItUiJUSyLIJEZHBBiUZl3DMBdM7tEW5b40KQSkFEKp5heGQ1dS7sI9y2D1NCvFJYCT0jMJZlhnpOHvwvRjQpioQSKnNNXRPCiv7+2Z/8Mo0wKUFxvk/qZCrdbARMhXe+p/uNZhIkCNWF1qMVoL4QoOyhz2TILJfhL6eAqHiTnd/ZORq36KREprKywd/Usnp5SWn1NioE6x/qfKq2evFGrzewtaqueVVDw7JmyrSGkx2v/25x67pGRrVFmsYaOecB27ZkB0oMw4hxbvts2079T4hw1Fd2mM7/s4d24YRMMZqs7jlNxdKYFiSUpiwp54tzO3Kqq+0pyvSUFaaEKfVR8PBTv/7uHxNC1LCe/Nr52S1Sma6nE6JMc1AQowunwRZFTSFA596GXK2XqYbQ0g17uUXGHSYlOPX1raWBiuryaHBkQk44VPlLy2vqV5TWVNc3Mc3YJMOYydgrzPCs1zR9U1lZ1cqy8toaqrFaIqjFbaufaVo1obRGcM64baVqqWkGsW2zKBoeCnFGZjRN54QI7Y08qD08ePLI5PfnCENvz+GPSbGS805ymE/OXZ35Y+LA3qcOhkIhKVTO+ahMlpQSp6mG+yBKaKxzRuBCEqCp6jqVdTPVPIszntNaSScs53zX2rqhpqyyunl4oLeHkCSprF26ZFnr+iWVdYsXEUJW2aa1UlB+UGOGTohYrmmeRR6vr5pRViEHrbiwxynVyhijpZxzPd3w05y1GiQ85wQYS6NJk7lGIsHT7gLIIUP53UB/1z+aiXg/YzQhRemMYUVFaGzg4GuvPd03OXzntqqcQpTOsspkMTmtK3eRMIQ3561k4WdwvgtQNsNm7jBvmEdxz6u45l6U8Djfz4pNS8v6umBwJBYMDiSbmzc0VNXWrfcagfXrN1+3jjFtFbetNiGEzpi+kjCymBLqlxPs8jshRJKm5iZkb8TpH+ZKFn7DQw1mTkBOXKV7SdGyLDNCSGoOy3IO6QXHBp4ZHxs4kkxEDyuLSV7nXIR6T7a3d3a2xTJYTW5xSmc1ZSM+EKSZ3/LzNub5IkDZCk02YpN6aExNXJ95qc9KVNQ8TOrd7/dL92NPXV1LoKfnWKS0tNpTv6SpriRQe3lFefXmlmUb1vScOrw7FgktWrn20tW6bjRTqlUlEtHzhf15++M4nyqmaZpFKONCiHFXvZLh8ZF/7uk5+DxjGk9EIuHBUE9QfrbCxDx1am94iuG8dN532c4vQZDOpwY2w7os9E4w3fCYQpHpmnMoTAmM+zvnZP+k0NR4Gxpaajs79w6Wl9eV1NW11q/ddFWNTulGQeimquqGFSMjfU/7A6UbSkurlmqaLt2PKy3LlHMvccaYzzQTM7xNiAYCc0YgTihLuYhTQkkyGTejsYlUQ+WWdWig7+g3pMUUiUVGNE3jSZMno2OnJ5JJyzp9+rCcoszGY08V3jnX5P5uziqIhIuXwEIToGwm/bMRFac4pfMsO2vlLF26rqWpZeOalmUXrWJM23SkfeczK9detlKjbKvh8TdSRisZYyVyHoZSFiZEBDg/s3gRLxBYaAQmvdFTxeaCh61ksntyHOCUdJqghEQJISOcWz1P/Me3/ikc7pdeLUqE0jk+KH/6dI4OMul0LuULDRvKO0MCxSxA2Q6XnTMklmZ+xjl05hab1P8+n09vatqwrqSsbPOmS2/fsmfnz3/bsmzz5sVLVq8jhJZRStfYthmghOia7k1aVlLOEEvngGLmN8MmgWgg4CRwxpFBrlo68y697YQQgh2aCA4Pjo8NJQnhIcHtLpvbQWHbJ59/7se/dQzbKVFyi5NTmNwipYQJVtJ53hiLuQN1WimZhs2kgKQTIOVCJN9T1oicq6moqCtvbFlfXl5atVYwrYWbif3M8G5atmLT5YbuXck01pxMJry65h0WxK61Lbgsn+ftH9WbBQHKGKGT3nqCiKRcHUCFiPf1dvyd4HYnFXawr//kmMaFLYQdO3788EAo1CPXBDjdxJX4uNc4wTqaxb1ZKFGLVYCcnmhugVGik/G9vLwuUFm5qEHTaCAaDYf8ZZX1F2+5aanB9Kv8pRWrPR5/HaWs3LbNIU0z6mzbLF0oNwzlBIFiJ0AZCxEiEkIIOzIRisupJULo8HB/57dGRntP2IlEaDwRDJ0+vl967Ml9BpX4yM/OITmnZYT5o2K/8TMoXzEJUCaLR1kxUnCcn53/p76vr1/aUF5Vt27DxTdtKa+o3iqECAjB+zTdWCsdAhjTyoTgBtyZZ9BSEAUEZkDAMafELds+TokYIoSGCOMTvV1H5VxSNMnNkyO9Hb85dGjXoGudkntBrSxBujkld8ngYTeDe1WIKMUmQKo8TutG7rmlhEd+nhQen1FT0+Cvra1dYwlBS/3l12y9+i3bPbr3oqQZL+e22sC5EFiRJwiAwHQENEPuJUu5ECQ51NvxtWBo6Nh4cGjPyHj/uB0eTMRiHkvTwvbo6KgatlMCBMtoOrgL5HoxCFA6jzQlOvL9nL+mptUV6zZdt5ISctni5tVXaZrRKOdHdcOzNJmIwftsgTQ8FBMEnAQo00Jy8awgfCIWDsUS8UiEU9ZpJsJPH9y346lYbCI6ONgp3b6dQ3ZTbTek5pBUNrCKirDJFVqA3HM9ytKROwcr4ZGPSanPjY0rVl5zywNvLQmU30kIXyx3WS5CpigSCIDALAjIYbszuz0Iy7asY7aZeIkTGjzVc7Cf2mLEsuyBpGUO9XR2d/b375Vu4VJcnGKUyaEBQ3WzuC9zEbVYBEjtNuAUHSVC3quuvXdNXdPSTVWVjfcKbq+TZ8DMBQykCQIgUFwE5AkcRFBbMwxh25ZJBQnJI5aE4P1mIv6rx374V9+fFKBsLCO3FQSrqMC3u5AC5F6fI62f1EFikwIjLR/jsu1vW7Nu45VfIJRulOtwCswL2YMACBQJgXg8PDA+2v8yIaSbcH7QZuJIaLBnKJRMRA7tfXbYYRmlG6o7H4bopuq/F4S4FkqAnOt6Jhd1psQlJTqEEHlypXfb5XctX3/xtX/DGNtcJG0exQABECgSAnKoTh5JIdcfCc6lS3c0EhmP2rbV0Xlk3yPh8PDgkSOvjDrmjdItilVClM7Nu0hq+oZiTLUjjLseRS1EhRCgqcRHDq1JAfJv2XLr0nVbrvuMx/BeVaytAOUCARAoLgKTbt+mbZmvECJOE0p7Ok/sH7aT5tFkLHLk1Vef7HIshHVbRm4xcltJxVJZ99y5LJfqy5XgpJsHK5byny3HfAuQU3zUOp5zrB4pQH5/WfXNdzz0keraxfdSQjHsVnTNBgUCgYVA4MwptYbh40TwMUFFv7B57/ce/fh9kyLknjfKJEjFJETOPlR+liNITkFyW3lOISq6m1YoAVLiI8VFDrdJEUoNu23YcF3ztqvf/B0ixNKio4UCgQAILHACgo8Mnn6aavSAoKKNEHG8v+tY2DSj4/v2PTfgsI5kPbP1pptPJsphS71LAVIilCrzxRdfWbL1qnd8zZwY/vRjj/2tqtN8ljHrvOZTgFRezkWlZ+d7pAAZRqDsne95+O88Ht+NWdcAAUEABEAgBwKM6YISERNCRDnhkWQsMsgo69j5whOf7ujYPTbFEF2htwNyOm45+1H5IK/6V37f+77wEZ8v8D8s0/xq55Gdf//ii0/IM52Kci5ovgVImYzK401aPgFlAd1214duaGxa+fVJRc+hSSEoCIAACMyMAKVMds6WEOLJRCJ8qqfrULuViO3fufMX+6bwpFOZzafzghIg5bgl39U6ydSayPXrL6259Jp7f00JbaGU9sYTkXf/5Ad//fxkYYtOhOZLgJzK7VzrI4fdpAB5y6rqqu6868+/5AuUXjezZoRYIAACIDA7AlKMNF2PCi4GbG71nO5qO5qIx55u2//Ub0ZHR+X2+O45FpnhfJxp5BQf95IVOZKU2r7s3vd89r5AScVfq7WSmqa98L1vf/wGh5DODlCeY8+nADnnfaRqq3mfQCBQEbjmpvfc3tDQ+jHKWF2e64jkQAAEQCBnAppmSGEJJRKx73Yc2fWMGY+OjsVH+zoGusbI0JDan855IuxciZHT8cC9WF/NobM1a7bVbbvyrV8yPP7r1FlljLGjgvO3/eCfP3U4jVDmzCTfEeZDgNzWj1poKl2uUxbQ8uVb6q+49u1f9Hj9l6nze/JdUaQHAiAAAjMkMGFZyTEqSB9l9HB/T8fhcGT8UCQxdqi3c3/vUHoxyud6HOVwIB/inYv1U0tWJh/mtRtvffDq5qXrvkgpq3HWk1Ly9PGDu979wgs/U4tzZ4gh/9HmS4DU7tZu8fEZhr/ivvd/7nGN6Ysw95P/G4wUi4+AYXiJbZuEc7WpMyG+gDySitqc26fNRLxWCB7QdJ3oHn+cCj5h2WaPbVkVgvPlvkC5PKA0IQQf5MIes5LmaSHsRo83sJlpmkm4CHNhD9i2HbJsc1DX9LsMj+ynUgebTgjbHufCHrG5FeK2fa382usvJZNraJIybc7tsWQi2lJ89ApZotTpsFzTdZsQOkoE6YyEx7760x997lnHYlfnmUZuF2j3UN10lVH9sxIgtVhfPrw7/zz3vOvTD5RW1P0ZpcznPqlZ1z07BefPfO/Rnz9CyHPqmICimA+aTwFSE2bK8pHv/utufuDKZSs2fWe6O4HrIFAoAoxphPM/HO8h/xdCJAURccJ5gmlGLSE8KYSICyESjLIY5/y0rhvE5tZqSpjcxXmUc7vbss3uk51t/a3LN7xF1702t61O27Z7du98otdKJsZNMzp81Y333SyPfh8c6Ow71v7yiLDNUCIRH9m49baWuvqWFbte+I8Ry06MmFZywk6ISCIxMbJxy82N0Vhw9dBA9yixrZhpJiYsy44GAiXRdZfcfPehfS8ME25HLZEME5tHbduMCI3Eb7r9g+8QnEdfe/nXw/F42OKWGbaJLU83JTe96SG5XobYpnlKCC7rSzuOvDq0dsM1D2lM8wlG5QmoEaHO6BE8SgldTYRw7dUoYoKQksmn9ULdxjnJNxIea4tGgs9RQX8fiY8d6x/sHY+NjQa7uvbF0mySmqvDQrpF+2rqQj5RpLyIb7/7Q3fUNy5/mFJWlr6S1BZUPNy2+/ff3LPnl7It5iqEc8JOJjofAqSsH6XeEpwcekv9veXeT320qqrhwTmrIRIGgSwI6IaHCC7PTLNSC591w2NxzscEt0eC4yPjVTUNGznnI9y2xiPh8TFCySnB7WPctrt13XivIKSbCnI0YcZPtb32dDBuJ0avuPLN1yUT9lD7vmf6pCAkRHw8GR4LjY+PJ1pb1y6zbWbHeWw8MtYfjsViZ89/r6tbUh4Oj8Qmv3M8qZYwQmR/n5NLLQ0EAlo0GpVzFm/4zfv91Z5YLG4TEpVP62f7g8bGFU2cJ5JCEJpITIQTCcrlk3U8nrSXLGlZLxjVuSCmMK3EZHmozZLW9ivvvUnXNOlYdPZlcbOrrLTmSsPj3aS+lGL2hxB0ESVEjoCkXppmEHnct2XKpIv7JR9GCKUJIvhoIpkYNc34IU3T951o3/3Krl1PvORY8OqcK3Lew6ksEedp0LJdqmUrsg+Vf3pDw8qaG9/0vv/l8fi3TUVKCHE8Gp348M8e+4K01tyH+hUM8nwJkHIblE9GsnGeFaD73//It73ekssLRgAZXzAEPF6/advmhG1Z1R6vnwguTtvcPNl36ujJpJk4XV5Va1dUNqzv6TzYTRg9Rah2lHJroK39pdjGDVdfYQp7WAh28viBHZFEwoyF7bF4bHQ00dByUZ1IhGMTE5F4NDosrYdUp1JSV+eJDMVNQibSDXs4O550ndBUHZO6NtPfrzveVP87h4GcAuaMo57Uid9f5fd6U+JChTgjMsFg0ty07aq6yopFlfK7M3988l3QJS3rtwfKKq+QYQXn5uBA12h4fMRctmpLC2Ps1oXSQM8cIUFNeRx5PBHdf6x919+c7Dy4Z3CwU+5TJzt9584LmUTIeW+dy1akAKVGjSb7z5QA3XDr+29ubl3/MGOscipOVOZP2S/jwdBDP/nJ59Vap4IPw820AefSJqSKK88NJTxnIb73T77yJGPa2aefXBJGWBBwPEXLbVc4pdTWNY8wraQu//d4AxO2bbZbltn+yo7HDzUv36A3LVm9ce+u3x6Jhkfbh0NDR0f7T47LDsLv92vy+SgWG5HWiHO4xO3plOorXWH+8HD/Rgslndhk+vFP1ym4r8/2N5wuvltcVN3cYpROkM6KkWOLGGc857BS6rPP5/MYRqmHEMGSSdNOJEKSP734kpvrN2+7/U/OZH5GzJSAMUpKGNPe4rj/jrPBhHzgLeiLMWYxzRjg3Dp+7NAruzgnTw+c7tkXDI7EhobalTt3ppNdFS+n57CyfmQfmuo/KytrK2649f3/raKq4c4sK2trTP/M9x79+dcm54Kma2tZJjvzYLNtvNPlrCbPlN+6WvcjAXobm9cuvuW2B/+Vado5XhvTJYrrFyYBOSxDCU0KwcOc20HKtEpGqG1zO8gtu5sQfjAWCx8LBYcqGhpXLLZs+8jeXb/qjsWCXUND3f2RSMQKBAIGpZRHIpGzlsoU6zjSicx0YjKdZeMUqmxvZD47imx/89MJk1N80gmR+s4tPs6wSjTcoqS+13y+Su+k+FA5HKg+NzevLt26/Y471FAeY0YzPTOyQvz+krsFlfYI8xGa2qZGthvZeDTbOjvSmS37WYczDK8piOgLjQ11JBMTL/eePPL0K6/8Rh4joRwW3HvQKWZqmx0576PmztXDu+fSK+/auH7DtV+mlNXnUMixWCz23n/70Wd/XQxzQdk2xhzqdzaoW8XPrvtRCr7pklvXbtp68z9NZz7OJHPEWdgEDI/X4rY9xLldrRsezbbtvvDEaHciET1GuTg4Ntp7tKS0dpPH7wvGwxNHjx95aWg4MjQy3tcXqa5u8nm9Hq2vr1MeXub8caceol1/6QTB3eGnmzzOFGY68DMRk5nEyVSOXH/z2YTPZDFNJUyZBMopRs4wTrFKzSv7/X5pFaSG8nQ9UGIYui5F6urr77uDEKERmlpT6E+JliBeW/CKJa3r3iy4TSwz5Wcxb6/JU16ThIhgeGJs3+H2nX/ddfzw0VCoR050qaG5P7hFnpmPU1MXSoDOzp/fevcHb62uanybz18m535yOhmaUfY618kDP/zmJ9omAeSzfeXENJvGlVOCjsBOAVK+62ctoOZl6xZtv/qdDwcC5bfkCnCmBUK84iOg6x5i2xYRghO5R5emG/2WlTx49OCOw8KyX1m+7vIrOo7vCXJuvjYy2t8+fPpkxDRDiUgkYpaULNIZi9kTExPOITP3BpJuK2amYjLTIbOpoBfsh5+hULPpDzLFnc6Scg7ZZRIl5/cqvJqgV/+f3RXa7/d7zgzVeXXpNZ0SKUNohjC0lWsve39FVZ2nddnF9YxSaSEZuuFdwi2zVQiRwYssv78br8efsGzzkBDiQPveZ58Nh0deaGt7qde1W4Gsl5q6UNZPagrDMIzAfe/70s80TVsyk5IJwTu6u9rveu6pHx4ttBU0mwY3Xd3dAiRVXHlv+FtXbGrYftXbv+Tzl1w5XUK4vpAJpNZOmISSOCW0lBARp5TJp76j4dDowSNtL+7dsO2Wy4gtTr++95mDo0M9u3t7j4w4fhhSULIRFbewZPpfWUGZoGYjCtmEWcg3LR9ln65vyUaYprKg3jCX5JpzcguV8sZNTQt4vRU+j0c3OOdGaWl53fW3vf9tpaU1t6asJUr8RBCfZSeli5tGz/Rb8iE67y9D9wU5sY6NjwzsnggOPfvUb/7lt45MnItOz4rQbXc+dGvDkjWPzPSoGkqpSZn+P7//7Y9+YdL6mu43kfd6qwSnaySzyTiTAEkvOP/SpRsWXXHdO7/k85XgwLnZUC6iuNJ9Vi6wZIwRQllMcD5q21Z/Mh7dJyjZp1H2FkLpzlNd7Uf7+js6RgZ6To+N9Uabm1dWnDp1XImOrJEaipjuKOWZiEyu4pFr+CK6I0VZlKn6nGyvZZpXclpT6eaVnFaTEqTUd9XVDVV+f0m9EIwRjQV0qvk2XX5Hmc60irLy6jfrhmctJSxApThRpllmIq99J2NaklEyND7e/+cH9r/U2dN5ZCASGZQ3UHm/pRae1jctr7nhxvd+zhcovWY2d1duvDoWGvrgEz/9O3VcQ0HaeV4huoC4BUi5EKasIL+/vPTuez76SKCk4vbZgETcwhKQU7267olz2+7s7+3obmxetWVifPj4xMTIHi7Iznh0vOv44ZeHe3o6xtet29YwPDw8PDTUpRbpuedj0g2XZRoyy3YOpiA/rMLelfMq92xEyS08zgeHPVAfAAAViklEQVTsqSylc6yiSQtKfZc67sDrLfdeculNm33e0kah0WpKaBURoqqpeU2pZnjXUELW55M2JaKHC9He092+q7+va/9Q/7Fjg4On5eJR2X96rrnx/u3Llm/6LNP0We2ZSQkJckEeadvzk2/u2bPHuXtDPqszbVoFEyAJ9J77H/5MaVn126k0evFaEAR8vgCJx6NErvJnGutLxKL72vc///LIUO+vT5zY23PxlltuCI6efLm7+4h0bVbWTDqhcS+GS+dx5hwamAvvsgXBHIU8h0A2c03OMJmsJfccknPI7hzraNIZQJ2/k3ovKaks3X7tvduXrdj4EKXUp2meFsJoaTIeSc1pzvbl8aQc+gaCwaHXD7/+/I4TJ/Y9q2k+7ZY7/vgvS8qq7plt+md+WGLw2IGdl7300n/2uIa585F8VmnMZcc/5RCcFKA73/oXf1RX3/IRQqhr646syo5Ac0SAMc2UCwIJpQFKiMkJDwnb7hVE7G5//fm2izZfd+1Q/8k9PT3HXu848uIr0iEgzTb1zmE0JSTpREfVIp2lkq2VM0ckkOwCIjBbYXL2V6l5osk/52e1Lid1raysrLSkpKZB133VVDcqmlvWVC9p3VBjGMYqjzdwJ6Opfo3NRpDkcLamGeHXdv3601U1DTWNzWv+YnLfzLzcGl0zXo6Hwm9/7LHPFOTk1PkUILVza2oOqLl5fe1lV7/lI6Xl1W+f6WRaXu4AEkkRSK2aoNoEF7x3YnzoABdWH6HaKp838GoiGTt+7OCuU0NDnR19fZ0Tq1dvX3T06M5+x8mRynpxz92ks2AyWTIYKkNbnGsC6SyjVPN3ZOwcslPuzW4xUh53TkFKrdnxer1GaWlV5VXXv/u9jNHFnJCy6urGBspYGdP0akZpuZnMfYuheCx0zOcvX+FwtMgbK5tb/7Dv5Re+eODAk2rUYt5+i/MlQGofuLNu2NXVTVU3v+nBLwRKK2/OG0kklDUBuRiTMBZjlJUIygaT0XBbf+/x35lm9JmOI/uGOU8ktEDAGOsfDoXD/eksnOnmb5T4TNeYp7uedZ0QEASyJDCTeSVlCWUaqjtn7qisrKxE6LpHF7qxbNnFNczQF2m6p1lQ0rBl6+0fSybkNGj2L/mAKMTc/FQ0zfj+jmf+/WNHjrwotwxKN+eafUFzDDmfAuTeSM939zs+8VB1deOfUkqlizZec0jgzD5VwiKURQgRR81kcvfYaO8wIbx+eODUc7teeuIp16JNtweae9sQ55xNOktH1WZufjVzyApJX9AE3H2icw5JWUtuK2m64Tr5AH52U+atl7/pgQ2bblir6foSxowWIXiFndo6iqldH+b1Bsiju22Lf/hH//Lf5O4I8+qQMB8CJPNIt5Ord+tld1x80abrvsmYVjWvxC+AzFJHBnAxfmZ/NKIlErF+QujusZG+F7u69u1t37/jeGlpvUapxicmetW2NM71Nu7P6UTGLULpyEKALoD2dh5VMdu5JLd3nXu4zilKSoDU1jpaZWVdhe7zVPn0QNWihuWLW5dvWlJRXf8+XdNrOee68/iPeWArbDP5zOjAqT998slHu+ZzcepcCpDipsZJ1WF0ajGq1zD8pe/8o4f/3uP1Yy1QnloZpdSijA2Oj/adsBPmk4KxmMaI/+SJtl3j46FTHR075amIzsWdU621yeQC7SwtBCZP9w7JFDWBdH2lEqF0lpHbeeGcIbpJzzrZJ0pR8hpGIHD1tffcyQzPqtKy6qbKqkV1gtuNjOmVaj+7uaRDKU0yxh793rc//imHFTSXWabSni8BUjtiO7eUSO1rtHHTTZdtveL2R+XKxTmv7XmYgW4Yo0KIEGOshttiKB6b2N19Yu+/nji2b9/ExGCMMWYzxvjY2Jj7DPt0Q2pOK8dNC0JzHrYfVGnWBDI5Nrg3WlVu3053bilA0jqSc+MeQgyvYRC/9GQoL6upXbvm8mXLVm17hDJ2zvlKsy5xhgQoJZame9/zL9/8i/+YrzOD5lOA1ImoZ88CUpuS3ve+R/4eOyJM3azkMQNCCEYps4jgUU7ECSL4noNtL/xXz4m2V2saWusO7vv9iTTWjdPacTsOqEyzmXiEAM3VLx/pLnQC2c4bKRFSo0Jy7lsJ0KQIpRacGivXXLZkxYrN2xqWrP6kHEKfN0BCHDuw56eb9+zZMy8np86HAClTVB3J4LaC/He/45MfqalpfN+8QV5AGWmaZlmWNRSPhg74AmVLEtFIeyQ+8WJ/96G9hw690B4Oh5Vlo4bSMgmOrLVzt91sF3YuIFooKggUBYGpBEleU1aQFCC1PEUKUKpv9Pl8JXff88nPlZRW3TDftRGEhM1k/D0//sFf/Wo+FqfOlwApEZKw3WdbBG66/cHbm1sv+tv5hl3M+VHKkpTSnsGBrlcS8cgTvd1HXm9ausbf290+furUwdFgMKh2gJZC4l706RSadMfvwpop5puPsp2PBNyec2ppiuwTU2sjJ/tG39U33H/p8hWbP8s0rWH+QdAIZdqHfvDox36a5iiTvBdnvgUoNeHmECEJPbDpkltWbL70th9SQsrzXsMFkeCZHaMp03ooJXVEkO6JieEXDr/+4vcOHPhdt+u8EKelk25ILZN79FTzOwuCEgoJAgucgHMeSPWFUoBK1DyQ319WftNtD/5ZbX3L/fM0R+9CSoVpxv7r+MHX/mTXrv9UR0TMWd8xHwIkC6/UX80DKUsotTC1vLym/LqbH/hAdV3TA5RQKUrn9YtSxoXgTHqsCSGCSSt5NBmLPn2q4/Ud3tLSZeFw6NXXdj153HWGfCZvNWfjwLDaed1yULkFTMC5gFWd8yP7P9kXlk4KkLFm/dUrLrvq7q9oTFtWqLpSxiJciC93H/7l15577jm1RGNORk3mW4CUN5xzXZA0Pz2r1l3atO3yN3/G6/VfXyjwc5svlR4EoWgs1OH3VywKjvWf0A3v0zYRR7qO7+/e8/Iv5OFQUmTU6YhqaC2TlZNJeOa2GkgdBEAgVwLO4TclPmruR1lAKeeDO9/60XfX1i/5SKG3J6OM9jJOP/C9f/6EXKCejZNSrkxS4edTgGR+Z1cDTyq/OqIhddbFijWXLLnq2nf9I2PaqhnVpkgjMcYmbNvq7Os58sOe3o7fNdS1LOs4um/f6OjwxMREr5zLcZ8Nn421M2dmcZFiRLFAYKEScK4Jcp5yqg66k0NwXl3XPfe//0v/rml6U5FU9MSrLz5xfVvb86fnanHqfAmQ4unc5ty5P5xyTPDWNiytue3OD37N0D2bJ71FiuReZFsMagsiIoTzw4yxVi7EawN9Xb/97S+/9eMs53KmcxqYE1M429ohHAiAQNYEnNv4qNEfpyNWyvEgEAiUvumtH/1YWVnNu4qtzzM8/u/3jA59/Df/+vkJhyWUNYDpAs63AKknAeWKqHZHUO+pMdFrb7rvumUrLvkspdqi1BG5C+Alj7kVXIwmktFXg8HBZ3p7ju8or6pdPdp74uW2tpfk7gPOPZbSWThO5wG3yEB0FkAbQBFBwEVA9V1q3Y863VQ+cMu+LmUBbd56y9oNm69/RNe964qPIB237MTDLz/3wvePH/9N7tt4T1Oh+e7cMz0RKAFKjYO2tKyuX7/llnvr6lvv1yirLb6bcqZEjNKgSHmw0JFwaOS5aCT4g56ugz0nTrzaPzExodbnuIfXpprTwbBasd5slAsEcifgdDyQfZzakPmsABlGwHvrXQ+9q7au+aOUUnm9qF6UUnna8Zef+c3jX+3p2SkXp+a1j5pvAZKFdz4VKLPUuUhVPiXIJwN9+9X33Lrmou1fL6o7QohgTJsQnB8/2d32nYbGlTd3d+77xo7nfnbAsQtBJldpdfNg4RTZTUVxQCDPBDKN9qScriYtIG9lZUPZHW/98295vP6L8px/3pJjmv5qUiTe89ij//1YvueCCilATtdsKUDKM05tTWFcesVd21atveKPNN3Yrmla9aQTQ97ATp8QFYSSOCXE4LYd5oLsG+g78fRQ77HH9+59ps91CmgmS8f5xADhmR46QoDA+UDA7Xig5rnPEaArr3vHDavXXv7lYt8LkzL2nR88+okPTwqQc6H7rO5VIQRIFdi9MlhZQdIqSg3Fyb+qqiXlWy+/7aaqmsZ7SkorN1BKy+SeaLOq9bSRpfDQWCIROcYt6xeE0k3RcPCpgcGuF1/Z8bjcb00NoznndTC0Ni1XBACBC4KAc+hNrX1UAiQ93lKfdd1Xcv8ff/67GtXXFDsVuUXPMzt+0Npz8KA8NTWbY1iyqlIhBUgNxzmfFNQeSWq8NGUVeb1eT13jipqWpReta2hc9YHy8up1hNBKQkT+N+ljLGZbiVNjIwM/Hujv+sXJjgO91Ytb/f1de8cz7Cjtdh6AlZNV00MgEDhvCbj7NLX7izoR2rjy+ns3L1128Sc9Ht/F8z+yMzPuhi/wle9+48N/lc/jGopBgBQNp4u2GpJTVpF6l2Kkr1q7fdWWrbd+Vfd4Vgoh1xbJ4z5n4i1HBaXCFpwMEkotQsTo8ED3/20/9tKPThzcI5Vebezp9FpzHtSWzXk5M7vbiAUCILAQCTjnuOUDtNpyR23C7A8EAv5b7vjwhypr6h8s9ILTHAEnPUx/z3ce/fnjhDwnnaxm/Sq0ACkryGkNyc/OMzOUGKkFXKn/r7/lgdsaGldeTxlpplRrYpR4BSGlmmYYjGnyZpMzx1CnXikhEXJgTW5tLojNiYhZZuIkEeSFwZGeHZWVtUtOdbX94uXnH++ZwplApjXddjdwmZ51s0QCILBgCbiH35yu16mF95suuaF145Zbv6LrxqaFVUsqBLd3h2ITH3z8sS/uz8e6oGIQIHUPnC7aThPWeZKgeqJICdSKFduqy6vrany+QBUlmqZ5NH9j44pbSkqq3hyOjJmUMiGIGKJc9HFudxBK/YxpKzgXO0wz9urYSN/gyRP7jnZ1tUcJqeOEDLm3wVGCk27ME0KzsH49KC0IzAeBTAJ0dgHqW9/xqXdWVNd/nlIq54IW1Isx1qnp+oPf/d9/+fxkwWfVDxaTADmtIfk53RnryjJyDtc5z14n69ZdWVNX17Ro/9Hd0lmAsGTSJiQuEgnNIoSKkpISEo+PmKFQyHmOTi6Hti2oBoPCggAIzCsBtwCdnT6YdKzyfODDX/83TdMvEoKPyl3wBbeDFreXeD3+RWdGbYQlBDE5t0c457ptW6ljGeQ1rzdAhBByNCcphG2ZZkJuZJp6aZpODCM1+ENs246bZlzOOZ3z8nr9JJGIzQaI0DT96+Ve/pl/+IdPqEPrZpxeMQuQEiTnDXWeKJjusxuE03Jxz+NMJzpwJphxs0JEELhgCTi9e51OVWoKQb/kkjfdJYRtJ5ORYVPYZmxiYviya+6+uvfkkUWWmbAsbo9z2wonk4nBxUtWNi5pXne9IHwimUwEjx/aHePcCtrCDFVXN5e3Lr3oZumhxgkfDY0NxU93tQctYifLK+sqly/fcoMgUuSoFLNThAjz+KFdY2suuupBQUiESvET4pSQgsf5sCAkoevGm4ngnBAqrycFZcOUkAlCyUWE0DIpjpzzSG9/xwP/74l/emm2w3DFJkDOVussm7qpyjJy3mTnNWcc91yN+t8pRDK9TFvgzMq0vGB/fqg4CFzYBJxTCeohWU0dqC15nP1X6kE7UFtrRIeH5aiM6ndS6VRVLfYFAuW+aDQUHxvrVTsRpOJUVVV5q+uX1ZnReDwUGgsnEgkei43KzY3J2g3XXiyEbZpmMkztOB8eHhxNJpN2LDZmbrrk+mtN0wxxIexkNDRqM25HxoMR0wybN97+p1ceO7zb5Dw5QWyWtBkP6sKKbtx620aft7QkGgsHu07si/v0wP7nn/+pnC+fVT9ZzAKUjRg5b/Z0zT6d0MzZNuPTFQbXQQAEzlsCboGRlpBzJMc5uuOGkE2fnClMNnEz9auZRo9SI0WLFy8mHo+Hd3V1OacuZn0Dcy3wrDOcRQJuiygXkOngqu9mpeCzqA+iggAInJ8E3A5VbqsoV9HJtp+eLtx0153lco8YpZuymPXdy6VAs85sDhPIph4Qmjm8AUgaBEDgDQTSjdBk01dlEyZb3LNNK9PIUV7609kWLlsICAcCIAACFyqBfA2ZzSW/qbTAvQwlL+IjKwMBmstbirRBAARAIDcCC6FPhgDldk8RGgRAAARAoNgILAS1LTZmKA8IgAAIgEAeCECA8gARSYAACIAACOROAAKUOzPEAAEQAAEQyAMBCFAeICIJEAABEACB3AlAgHJnhhggAAIgAAJ5IAABygNEJAECIAACIJA7AQhQ7swQAwRAAARAIA8EIEB5gIgkQAAEQAAEcicAAcqdGWKAAAiAAAjkgQAEKA8QkQQIgAAIgEDuBCBAuTNDDBAAARAAgTwQgADlASKSAAEQAAEQyJ0ABCh3ZogBAiAAAiCQBwIQoDxARBIgAAIgAAK5E4AA5c4MMUAABEAABPJAAAKUB4hIAgRAAARAIHcCEKDcmSEGCIAACIBAHghAgPIAEUmAAAiAAAjkTgAClDszxAABEAABEMgDAQhQHiAiCRAAARAAgdwJQIByZ4YYIAACIAACeSAAAcoDRCQBAiAAAiCQOwEIUO7MEAMEQAAEQCAPBCBAeYCIJEAABEAABHInAAHKnRligAAIgAAI5IEABCgPEJEECIAACIBA7gQgQLkzQwwQAAEQAIE8EIAA5QEikgABEAABEMidAAQod2aIAQIgAAIgkAcCEKA8QEQSIAACIAACuROAAOXODDFAAARAAATyQAAClAeISAIEQAAEQCB3AhCg3JkhBgiAAAiAQB4IQIDyABFJgAAIgAAI5E4AApQ7M8QAARAAARDIAwEIUB4gIgkQAAEQAIHcCUCAcmeGGCAAAiAAAnkgAAHKA0QkAQIgAAIgkDsBCFDuzBADBEAABEAgDwQgQHmAiCRAAARAAARyJwAByp0ZYoAACIAACOSBAAQoDxCRBAiAAAiAQO4EIEC5M0MMEAABEACBPBCAAOUBIpIAARAAARDInQAEKHdmiAECIAACIJAHAhCgPEBEEiAAAiAAArkTgADlzgwxQAAEQAAE8kAAApQHiEgCBEAABEAgdwIQoNyZIQYIgAAIgEAeCECA8gARSYAACIAACOROAAKUOzPEAAEQAAEQyAMBCFAeICIJEAABEACB3AlAgHJnhhggAAIgAAJ5IAABygNEJAECIAACIJA7AQhQ7swQAwRAAARAIA8EIEB5gIgkQAAEQAAEcicAAcqdGWKAAAiAAAjkgQAEKA8QkQQIgAAIgEDuBCBAuTNDDBAAARAAgTwQgADlASKSAAEQAAEQyJ0ABCh3ZogBAiAAAiCQBwL/H1oeidWqRvuzAAAAAElFTkSuQmCC;rotation=-90;" vertex="1" parent="1">
          <mxGeometry x="516" y="377" width="79" height="40" as="geometry" />
        </mxCell>
        <mxCell id="IQgT02N7gyP_bAqmJs0r-9" value="Perceiving" style="rounded=0;whiteSpace=wrap;html=1;fontColor=#000000;strokeColor=none;fillColor=none;fontSize=18;" vertex="1" parent="1">
          <mxGeometry x="516" y="427" width="120" height="60" as="geometry" />
        </mxCell>
      </root>
    </mxGraphModel>
  </diagram>
</mxfile>
